<svg width="20" height="21" viewBox="0 0 20 21" fill="none" xmlns="http://www.w3.org/2000/svg">
<path d="M11.0573 3.55737C11.3073 3.30741 11.6464 3.16699 12 3.16699C12.3535 3.16699 12.6926 3.30741 12.9426 3.55737L18.9426 9.55737C19.1926 9.80741 19.333 10.1465 19.333 10.5C19.333 10.8536 19.1926 11.1927 18.9426 11.4427L12.9426 17.4427C12.6912 17.6856 12.3544 17.82 12.0048 17.8169C11.6552 17.8139 11.3207 17.6737 11.0735 17.4265C10.8263 17.1793 10.6861 16.8448 10.6831 16.4952C10.68 16.1456 10.8144 15.8088 11.0573 15.5574L14.6666 11.8334H1.99996C1.64634 11.8334 1.3072 11.6929 1.05715 11.4428C0.807102 11.1928 0.666626 10.8537 0.666626 10.5C0.666626 10.1464 0.807102 9.80728 1.05715 9.55723C1.3072 9.30718 1.64634 9.16671 1.99996 9.16671H14.6666L11.0573 5.44271C10.8073 5.19267 10.6669 4.85359 10.6669 4.50004C10.6669 4.14649 10.8073 3.80741 11.0573 3.55737Z" fill="black"/>
</svg>
