<svg width="310" height="650" viewBox="0 0 310 650" fill="none" xmlns="http://www.w3.org/2000/svg">
<g clip-path="url(#clip0_375_379)">
<path d="M154.549 576.331C159.325 576.331 164.582 579.898 169.267 588.47C173.871 596.894 177.355 609.25 178.832 624.435C179.237 628.6 175.831 632.331 171.25 632.331H167.106C166.521 632.331 165.939 632.267 165.368 632.14L164.5 636.045L165.368 632.14L157.983 630.497C155.73 629.996 153.395 629.988 151.138 630.474L143.356 632.151L144.199 636.062L143.356 632.151C142.803 632.271 142.238 632.331 141.671 632.331H138.457C133.758 632.331 130.209 628.361 130.727 623.931C132.786 606.294 136.131 594.134 140.41 586.493C144.589 579.03 149.344 576.331 154.549 576.331Z" fill="white" stroke="black" stroke-width="8"/>
<path d="M154.549 531.331L154.549 553.125L154.549 575.331" stroke="black" stroke-width="8"/>
<path d="M158.549 619.331C158.549 617.122 156.759 615.331 154.549 615.331C152.34 615.331 150.549 617.122 150.549 619.331H158.549ZM150.549 619.331V626.761H158.549V619.331H150.549ZM150.549 626.761V634.331H158.549V626.761H150.549Z" fill="black"/>
<path d="M120.519 645.902L119.317 649.717L121.082 650.273L122.648 649.288L120.519 645.902ZM109.201 638.145C107.094 637.482 104.848 638.652 104.185 640.759C103.521 642.867 104.692 645.113 106.799 645.776L109.201 638.145ZM140.824 628.41L118.39 642.516L122.648 649.288L145.082 635.183L140.824 628.41ZM121.72 642.087L109.201 638.145L106.799 645.776L119.317 649.717L121.72 642.087Z" fill="black"/>
<path d="M190.52 642.635L192.357 646.188L190.714 647.037L189.003 646.336L190.52 642.635ZM200.34 633.053C202.302 632.038 204.716 632.806 205.731 634.768C206.745 636.731 205.977 639.144 204.015 640.159L200.34 633.053ZM167.517 628.883L192.037 638.934L189.003 646.336L164.483 636.285L167.517 628.883ZM188.683 639.082L200.34 633.053L204.015 640.159L192.357 646.188L188.683 639.082Z" fill="black"/>
<path d="M184.842 586.375C183.486 588.119 183.8 590.632 185.544 591.989C187.288 593.345 189.801 593.031 191.157 591.287L184.842 586.375ZM156.324 549.755C173.024 546.458 183.61 551.44 188.302 558.486C193.007 565.551 192.789 576.159 184.842 586.375L191.157 591.287C200.711 579.003 201.993 564.612 194.96 554.051C187.915 543.472 173.525 538.204 154.775 541.906L156.324 549.755Z" fill="black"/>
<path d="M123.838 596.127C125.055 597.97 124.548 600.451 122.704 601.669C120.861 602.886 118.38 602.379 117.162 600.535L123.838 596.127ZM153.581 549.331C138.068 549.331 126.87 555.517 121.447 564.041C116.105 572.438 115.811 583.973 123.838 596.127L117.162 600.535C107.688 586.189 107.395 571.224 114.698 559.746C121.92 548.395 136.013 541.331 153.581 541.331V549.331Z" fill="black"/>
<path d="M128 492.935C128 492.457 128 491.976 128 491.498C128.812 490.414 129.641 489.343 130.417 488.233C130.672 487.867 130.963 487.4 130.949 486.991C130.78 482.677 132.177 478.679 133.305 474.617C133.887 472.53 135.083 470.946 136.987 470.041C138.639 469.258 140.392 468.6 142.17 468.18C145.683 467.347 149.242 466.715 152.784 466C153.98 466 155.179 466 156.375 466C158.049 466.359 159.73 466.675 161.39 467.085C164.784 467.922 168.211 468.672 171.537 469.732C173.595 470.386 175.143 471.984 175.692 474.11C176.763 478.234 178.447 482.242 178.185 486.646C178.153 487.206 178.533 487.853 178.871 488.366C179.582 489.447 180.39 490.464 181.159 491.506V492.942C179.568 494.314 179.054 496.021 179.406 498.089C179.51 498.696 179.18 499.372 179.115 500.022C179.069 500.471 179.083 500.945 179.169 501.387C179.453 502.874 180.028 504.35 180.038 505.837C180.064 508.57 179.794 511.307 179.589 514.041C179.543 514.677 179.449 515.524 179.036 515.876C177.901 516.85 177.944 518.135 177.661 519.385C177.097 521.882 176.666 524.457 175.689 526.795C173.577 531.853 170.477 536.263 165.477 538.878C162.55 540.408 159.418 541.554 156.379 542.869H152.428C148.351 542.237 144.957 540.064 141.757 537.722C135.381 533.056 132.138 526.515 131.182 518.757C131.096 518.067 130.891 517.388 130.697 516.717C130.363 515.564 129.857 514.443 129.67 513.269C129.455 511.929 129.512 510.546 129.448 509.181C129.358 507.281 129.142 505.374 129.232 503.481C129.275 502.604 130.428 501.559 130.187 500.931C129.189 498.319 130.884 494.979 128 492.935ZM168.649 527.722C170.423 525.606 171.889 523.803 173.415 522.054C174.69 520.592 175.358 518.933 175.376 516.997C175.401 514.31 175.559 511.616 175.444 508.937C175.319 506.013 174.812 503.107 174.708 500.187C174.507 494.444 171.784 490.274 166.375 488.481C158.48 485.863 150.485 485.881 142.586 488.51C138.226 489.961 135.252 493.075 134.631 497.626C133.905 502.942 133.79 508.344 133.456 513.714C133.179 518.153 134.753 521.871 137.967 524.931C138.876 525.797 139.691 526.763 140.74 527.887C140.887 526.72 141.01 526.012 141.063 525.298C141.297 522.334 142.741 520.179 145.237 518.581C150.201 515.398 155.46 515.064 160.869 516.986C165.308 518.563 168.351 521.436 168.376 526.569C168.376 526.792 168.476 527.014 168.645 527.729L168.649 527.722ZM154.475 516.871C154.155 517.448 153.215 517.847 151.656 518.067C145.952 518.868 142.428 523.132 142.802 528.843C142.834 529.31 143.093 529.909 143.448 530.19C151.293 536.396 158.362 536.048 165.879 530.006C166.063 529.859 166.253 529.683 166.354 529.478C166.989 528.167 165.822 522.686 164.665 521.659C162.342 519.594 159.741 518.128 156.559 517.801C155.858 517.73 155.205 517.209 154.472 516.868L154.475 516.871ZM155.136 478.492C155.302 478.679 155.467 478.87 155.632 479.056C156.641 478.891 157.647 478.726 158.656 478.557C158.426 477.893 158.193 477.224 157.959 476.546C159.393 475.791 158.703 474.441 158.599 473.302C158.584 473.155 157.478 473.105 156.742 472.99C156.62 472.577 156.512 471.909 156.217 471.337C155.955 470.831 155.488 470.436 155.108 469.991C154.709 470.407 154.231 470.774 153.929 471.251C153.66 471.682 153.581 472.235 153.419 472.735C153.254 472.684 153.085 472.634 152.92 472.584C153.19 470.892 153.459 469.2 153.721 467.552H150.309C150.524 468.134 150.589 468.6 150.84 468.913C151.394 469.599 152.069 473.909 151.43 474.383C149.073 476.14 151.078 476.147 152.198 476.513C151.886 477.232 151.58 477.936 151.196 478.816H155.025C154.544 477.943 154.206 477.332 153.789 476.582H156.483C155.948 477.339 155.539 477.914 155.133 478.492H155.136ZM171.44 484.584C161.084 478.751 146.512 478.751 137.802 483.938C149.088 479.724 160.273 480.382 171.44 484.584ZM178.275 503.215C176.935 503.951 176.946 507.931 177.908 509.745C178.038 507.414 178.156 505.316 178.275 503.215ZM131.678 503.305H131.186V508.912C131.337 508.912 131.491 508.912 131.642 508.912C131.653 507.044 132.407 505.169 131.674 503.308L131.678 503.305Z" fill="black"/>
<path d="M168.649 527.722C168.48 527.007 168.383 526.788 168.379 526.562C168.354 521.426 165.312 518.552 160.873 516.979C155.467 515.061 150.205 515.395 145.241 518.574C142.745 520.176 141.301 522.327 141.067 525.29C141.01 526.005 140.891 526.713 140.744 527.88C139.695 526.756 138.88 525.79 137.971 524.924C134.756 521.864 133.183 518.146 133.46 513.707C133.794 508.34 133.909 502.938 134.634 497.619C135.256 493.068 138.23 489.954 142.59 488.503C150.489 485.874 158.484 485.856 166.379 488.474C171.788 490.266 174.511 494.436 174.712 500.18C174.812 503.1 175.322 506.009 175.448 508.93C175.563 511.613 175.405 514.303 175.38 516.99C175.362 518.926 174.694 520.585 173.419 522.047C171.892 523.796 170.427 525.599 168.652 527.715L168.649 527.722ZM137.044 495.345C139.695 493.585 140.877 493.585 143.474 495.374C144.063 495.78 144.576 496.308 145.201 496.642C146.027 497.08 146.904 497.497 147.805 497.694C148.247 497.791 148.804 497.378 149.31 497.195C149.03 496.753 148.836 496.196 148.448 495.898C147.561 495.216 146.613 494.591 145.622 494.07C144.163 493.305 142.709 492.414 141.143 492.008C138.898 491.43 137.044 493.09 137.044 495.349V495.345ZM170.933 496.574C169.748 494.569 168.279 494.016 166.709 494.573C165.061 495.158 163.602 496.254 162.011 497.03C161.045 497.5 159.993 497.798 158.972 498.158C158.391 498.362 157.798 498.531 157.209 498.718C157.615 499.206 157.924 499.925 158.444 500.148C160.503 501.038 162.097 500.018 163.584 498.671C165.549 496.89 167.561 495.162 170.937 496.574H170.933ZM160.226 511.293C158.685 510.995 157.478 511.376 156.451 512.493C155.1 513.958 154.134 513.987 152.733 512.507C151.577 511.282 150.251 510.984 148.52 511.587C149.098 512.227 149.759 512.769 150.514 513.103C151.372 513.484 152.295 513.847 153.215 513.915C154.267 513.994 155.352 513.786 156.411 513.62C156.842 513.552 157.259 513.082 157.647 513.125C159.016 513.279 159.791 512.676 160.222 511.289L160.226 511.293ZM148.606 501.969C146.308 498.966 142.012 498.951 139.824 501.818C140.579 501.512 141.25 501.239 141.487 501.142C142.518 501.886 143.262 502.841 143.933 502.795C144.713 502.737 145.428 501.796 146.401 501.067C146.897 501.268 147.752 501.62 148.606 501.969ZM162.054 501.38C163.73 501.597 164.64 501.857 164.784 502.159C164.234 502.464 163.699 502.762 163.002 503.154C165.38 504.641 166.713 504.17 167.065 501.674C167.65 501.778 168.074 501.857 168.749 501.976C166.612 500.094 164.515 499.964 162.054 501.38ZM161.462 509.113C161.566 510.215 162.004 511.372 161.659 512.198C161.286 513.096 160.179 513.692 159.332 514.475C160.851 514.479 162.008 513.865 162.55 512.467C163.092 511.077 162.46 509.968 161.462 509.113ZM147.859 509.113C146.652 510.032 146.135 511.128 146.642 512.428C147.18 513.811 148.28 514.547 149.943 514.421C146.969 512.378 146.904 512.22 147.859 509.113Z" fill="white"/>
<path d="M154.475 516.871C155.208 517.212 155.862 517.733 156.562 517.805C159.741 518.128 162.345 519.594 164.669 521.663C165.822 522.69 166.993 528.171 166.357 529.482C166.257 529.687 166.066 529.863 165.883 530.01C158.369 536.051 151.297 536.4 143.452 530.193C143.096 529.913 142.834 529.313 142.806 528.846C142.432 523.132 145.956 518.872 151.659 518.071C153.218 517.853 154.158 517.454 154.479 516.875L154.475 516.871ZM161.045 521.731C160.1 518.958 158.825 518.369 156.501 519.109C155.23 519.515 153.843 519.547 152.536 519.856C151.365 520.132 150.233 520.553 148.685 521.034C150.765 520.93 152.302 520.887 153.836 520.765C154.594 520.704 155.373 520.599 156.081 520.341C158.825 519.331 158.85 519.314 161.045 521.731ZM151.476 526.027C153.333 527.137 155.977 527.108 157.385 526.027H151.476ZM158.66 522.629C158.649 522.478 158.638 522.327 158.628 522.173C155.747 522.367 152.866 522.561 149.986 522.755C149.996 522.895 150.007 523.038 150.018 523.178C152.899 522.995 155.779 522.812 158.663 522.625L158.66 522.629Z" fill="white"/>
<path d="M155.136 478.492C155.546 477.914 155.952 477.339 156.487 476.582H153.793C154.206 477.332 154.547 477.943 155.029 478.816H151.2C151.584 477.936 151.889 477.232 152.202 476.513C151.085 476.147 149.077 476.14 151.433 474.383C152.073 473.906 151.397 469.596 150.844 468.913C150.593 468.601 150.528 468.134 150.313 467.552H153.725C153.463 469.197 153.193 470.892 152.924 472.584C153.089 472.634 153.258 472.684 153.423 472.735C153.585 472.236 153.66 471.682 153.933 471.251C154.235 470.774 154.709 470.407 155.111 469.991C155.488 470.436 155.959 470.831 156.221 471.338C156.516 471.909 156.62 472.577 156.746 472.99C157.478 473.105 158.588 473.155 158.603 473.302C158.707 474.441 159.396 475.791 157.963 476.546C158.2 477.225 158.43 477.893 158.66 478.557C157.651 478.722 156.645 478.888 155.636 479.056C155.471 478.87 155.305 478.679 155.14 478.492H155.136Z" fill="white"/>
<path d="M171.44 484.58C160.269 480.378 149.088 479.721 137.802 483.934C146.516 478.747 161.088 478.747 171.44 484.58Z" fill="white"/>
<path d="M178.275 503.211C178.156 505.313 178.038 507.41 177.909 509.741C176.946 507.928 176.935 503.951 178.275 503.211Z" fill="white"/>
<path d="M131.678 503.301C132.411 505.165 131.657 507.037 131.646 508.905C131.495 508.905 131.34 508.905 131.19 508.905V503.301H131.682H131.678Z" fill="white"/>
<path d="M137.044 495.345C137.044 493.086 138.894 491.427 141.143 492.005C142.709 492.411 144.163 493.302 145.622 494.067C146.613 494.588 147.561 495.213 148.448 495.895C148.84 496.193 149.03 496.753 149.31 497.192C148.804 497.375 148.251 497.788 147.805 497.691C146.9 497.493 146.028 497.077 145.201 496.639C144.576 496.308 144.063 495.776 143.474 495.371C140.88 493.582 139.695 493.582 137.044 495.342V495.345Z" fill="black"/>
<path d="M170.937 496.578C167.56 495.166 165.553 496.894 163.584 498.675C162.097 500.022 160.506 501.042 158.444 500.151C157.924 499.925 157.615 499.21 157.209 498.722C157.798 498.535 158.391 498.366 158.972 498.162C159.992 497.802 161.045 497.504 162.011 497.034C163.599 496.258 165.061 495.162 166.709 494.577C168.279 494.017 169.748 494.577 170.933 496.578H170.937Z" fill="black"/>
<path d="M160.229 511.297C159.798 512.683 159.023 513.283 157.654 513.132C157.266 513.089 156.849 513.559 156.418 513.628C155.359 513.793 154.274 514.001 153.222 513.922C152.302 513.854 151.376 513.491 150.521 513.111C149.766 512.776 149.106 512.231 148.527 511.595C150.258 510.991 151.584 511.289 152.74 512.514C154.138 513.994 155.107 513.965 156.458 512.5C157.485 511.383 158.692 511.002 160.233 511.3L160.229 511.297Z" fill="black"/>
<path d="M148.61 501.973C147.755 501.624 146.9 501.272 146.405 501.071C145.431 501.8 144.716 502.741 143.937 502.799C143.265 502.849 142.522 501.89 141.491 501.146C141.25 501.243 140.579 501.516 139.828 501.822C142.015 498.955 146.315 498.97 148.61 501.973Z" fill="black"/>
<path d="M162.058 501.383C164.515 499.968 166.612 500.097 168.753 501.979C168.078 501.857 167.654 501.782 167.068 501.678C166.716 504.177 165.384 504.648 163.006 503.157C163.706 502.766 164.238 502.471 164.788 502.162C164.644 501.861 163.734 501.601 162.058 501.383Z" fill="black"/>
<path d="M161.462 509.116C162.46 509.971 163.092 511.081 162.55 512.471C162.004 513.868 160.851 514.486 159.332 514.479C160.179 513.696 161.282 513.1 161.659 512.202C162.004 511.375 161.566 510.219 161.462 509.116Z" fill="black"/>
<path d="M147.863 509.116C146.907 512.22 146.972 512.381 149.946 514.425C148.283 514.551 147.184 513.814 146.645 512.431C146.139 511.131 146.656 510.036 147.863 509.116Z" fill="black"/>
<path d="M161.045 521.731C158.85 519.314 158.825 519.332 156.081 520.341C155.373 520.6 154.594 520.704 153.836 520.765C152.302 520.887 150.765 520.93 148.685 521.034C150.23 520.553 151.365 520.133 152.536 519.856C153.843 519.547 155.23 519.515 156.501 519.109C158.825 518.369 160.104 518.958 161.045 521.731Z" fill="black"/>
<path d="M151.476 526.027H157.385C155.977 527.108 153.333 527.137 151.476 526.027Z" fill="black"/>
<path d="M158.66 522.629C155.779 522.812 152.899 522.995 150.014 523.182C150.004 523.042 149.993 522.898 149.982 522.758C152.863 522.564 155.743 522.37 158.624 522.176C158.635 522.327 158.646 522.478 158.656 522.632L158.66 522.629Z" fill="black"/>
</g>
<defs>
<clipPath id="clip0_375_379">
<rect width="310" height="650" fill="white"/>
</clipPath>
</defs>
</svg>
