<svg width="310" height="650" viewBox="0 0 310 650" fill="none" xmlns="http://www.w3.org/2000/svg">
<rect x="106.591" y="126.934" width="14.1627" height="4.95694" rx="2.47847" transform="rotate(-10.8545 106.591 126.934)" fill="black"/>
<path d="M156.095 279.819C139.584 247.86 121.008 167.025 113.784 130.602" stroke="black" stroke-width="4"/>
<path d="M144.229 65.6391C149.311 92.1416 123.964 125.405 114.656 125.748C96.4927 130.673 68.6658 102.12 63.2608 83.3317C56.5495 53.9705 69.4402 30.9535 95.0913 27.4769C119.289 22.8371 138.495 35.7341 144.229 65.6391Z" fill="#3F37C9"/>
<path d="M83.1461 41.0036C79.1435 43.4465 68.5589 51.559 71.0908 65.7649" stroke="white" stroke-opacity="0.3" stroke-width="5.66507" stroke-linecap="round"/>
<rect x="141.841" y="99.9126" width="14.1627" height="4.95694" rx="2.47847" fill="black"/>
<path d="M155.328 279.371C156.085 280.175 157.35 280.213 158.155 279.456C158.959 278.699 158.997 277.434 158.24 276.629L155.328 279.371ZM166.98 176.037L168.682 177.087L168.695 177.066L168.708 177.045L166.98 176.037ZM158.24 276.629C158.462 276.865 158.511 277.059 158.444 276.893C158.409 276.804 158.353 276.643 158.28 276.391C158.136 275.891 157.963 275.17 157.767 274.233C157.376 272.367 156.917 269.771 156.43 266.653C155.455 260.423 154.376 252.192 153.497 243.727C152.618 235.258 151.941 226.591 151.765 219.48C151.677 215.922 151.716 212.789 151.909 210.282C152.109 207.692 152.46 206.033 152.847 205.235L149.248 203.49C148.502 205.028 148.123 207.361 147.921 209.974C147.713 212.67 147.677 215.953 147.767 219.579C147.946 226.838 148.634 235.62 149.519 244.141C150.404 252.667 151.491 260.967 152.478 267.271C152.97 270.42 153.441 273.092 153.852 275.053C154.057 276.03 154.253 276.861 154.437 277.499C154.528 277.816 154.626 278.119 154.733 278.384C154.808 278.573 154.988 279.01 155.328 279.371L158.24 276.629ZM152.847 205.235C157.332 195.984 165.266 182.625 168.682 177.087L165.278 174.987C161.849 180.544 153.826 194.046 149.248 203.49L152.847 205.235ZM168.708 177.045C171.558 172.159 174.037 160.083 163.083 149.13L160.255 151.958C169.696 161.399 167.36 171.417 165.253 175.029L168.708 177.045ZM163.083 149.13C158.4 144.447 155.196 136.242 153.154 127.542C151.13 118.925 150.33 110.196 150.214 104.827L146.215 104.913C146.336 110.519 147.164 119.529 149.259 128.456C151.336 137.3 154.741 146.445 160.255 151.958L163.083 149.13Z" fill="black"/>
<path d="M190.349 46.8029C190.349 73.7882 159.191 101.683 149.985 100.267C131.219 101.683 109.267 68.401 107.497 48.9313C106.435 18.8316 123.43 -1.34602 149.276 0.0700658C173.915 0.0700658 190.349 16.3531 190.349 46.8029Z" fill="#4361EE"/>
<path d="M134.998 11.105C130.607 12.7504 118.684 18.7245 118.495 33.153" stroke="white" stroke-opacity="0.3" stroke-width="5.66507" stroke-linecap="round"/>
<path d="M157 390C161.775 390 167.033 393.567 171.717 402.139C176.322 410.563 179.805 422.919 181.282 438.104C181.687 442.269 178.282 446 173.701 446H169.556C168.972 446 168.389 445.936 167.819 445.809L166.95 449.714L167.819 445.809L160.434 444.166C158.18 443.665 155.845 443.657 153.588 444.143L145.807 445.82L146.65 449.731L145.807 445.82C145.253 445.94 144.688 446 144.121 446H140.908C136.209 446 132.66 442.03 133.177 437.6C135.237 419.963 138.581 407.803 142.86 400.162C147.039 392.699 151.794 390 157 390Z" fill="white" stroke="black" stroke-width="8"/>
<path d="M157 345L157 366.794L157 389" stroke="black" stroke-width="8"/>
<path d="M161 433C161 430.791 159.209 429 157 429C154.791 429 153 430.791 153 433H161ZM153 433V440.43H161V433H153ZM153 440.43V448H161V440.43H153Z" fill="black"/>
<path d="M144 471.5L146.59 474.548L148 473.35V471.5H144ZM131.409 476.952C129.726 478.383 129.521 480.907 130.952 482.591C132.383 484.274 134.907 484.479 136.59 483.048L131.409 476.952ZM140 445V471.5H148V445H140ZM141.409 468.452L131.409 476.952L136.59 483.048L146.59 474.548L141.409 468.452Z" fill="black"/>
<path d="M174 469.5L171.409 472.548L170 471.35V469.5H174ZM186.59 474.952C188.274 476.383 188.478 478.907 187.048 480.591C185.617 482.274 183.093 482.479 181.409 481.048L186.59 474.952ZM178 443V469.5H170V443H178ZM176.59 466.452L186.59 474.952L181.409 481.048L171.409 472.548L176.59 466.452Z" fill="black"/>
<path d="M158 359.5C223 346.5 194.5 282 172 277.5" stroke="black" stroke-width="8"/>
<path d="M156.031 359C91.0311 346 119.531 281.5 142.031 277" stroke="black" stroke-width="8"/>
<path d="M140 277C152.4 277 167.167 277.5 173 277.5" stroke="black" stroke-width="8" stroke-linecap="round" stroke-linejoin="round"/>
<path d="M130 309.935C130 309.457 130 308.976 130 308.498C130.812 307.414 131.641 306.343 132.417 305.233C132.672 304.867 132.963 304.4 132.949 303.991C132.78 299.677 134.177 295.679 135.305 291.617C135.887 289.53 137.083 287.946 138.987 287.041C140.639 286.258 142.392 285.6 144.17 285.18C147.683 284.347 151.242 283.715 154.784 283C155.98 283 157.179 283 158.375 283C160.049 283.359 161.73 283.675 163.39 284.085C166.784 284.922 170.211 285.672 173.537 286.732C175.595 287.386 177.143 288.984 177.692 291.11C178.763 295.234 180.447 299.242 180.185 303.646C180.153 304.206 180.533 304.853 180.871 305.366C181.582 306.447 182.39 307.464 183.159 308.506V309.942C181.568 311.314 181.054 313.021 181.406 315.089C181.51 315.696 181.18 316.372 181.115 317.022C181.069 317.471 181.083 317.945 181.169 318.387C181.453 319.874 182.028 321.35 182.038 322.837C182.064 325.57 181.794 328.307 181.589 331.041C181.543 331.677 181.449 332.524 181.036 332.876C179.901 333.85 179.944 335.135 179.661 336.385C179.097 338.882 178.666 341.457 177.689 343.795C175.577 348.853 172.477 353.263 167.477 355.878C164.55 357.408 161.418 358.554 158.379 359.869H154.428C150.351 359.237 146.957 357.064 143.757 354.722C137.381 350.056 134.138 343.515 133.182 335.757C133.096 335.067 132.891 334.388 132.697 333.717C132.363 332.564 131.857 331.443 131.67 330.269C131.455 328.929 131.512 327.546 131.448 326.181C131.358 324.281 131.142 322.374 131.232 320.481C131.275 319.604 132.428 318.559 132.187 317.931C131.189 315.319 132.884 311.979 130 309.935ZM170.649 344.722C172.423 342.606 173.889 340.803 175.415 339.054C176.69 337.592 177.358 335.933 177.376 333.997C177.401 331.31 177.559 328.616 177.444 325.937C177.319 323.013 176.812 320.107 176.708 317.187C176.507 311.444 173.784 307.274 168.375 305.481C160.48 302.863 152.485 302.881 144.586 305.51C140.226 306.961 137.252 310.075 136.631 314.626C135.905 319.942 135.79 325.344 135.456 330.714C135.179 335.153 136.753 338.871 139.967 341.931C140.876 342.797 141.691 343.763 142.74 344.887C142.887 343.72 143.01 343.012 143.063 342.298C143.297 339.334 144.741 337.179 147.237 335.581C152.201 332.398 157.46 332.064 162.869 333.986C167.308 335.563 170.351 338.436 170.376 343.569C170.376 343.792 170.476 344.014 170.645 344.729L170.649 344.722ZM156.475 333.871C156.155 334.448 155.215 334.847 153.656 335.067C147.952 335.868 144.428 340.132 144.802 345.843C144.834 346.31 145.093 346.909 145.448 347.19C153.293 353.396 160.362 353.048 167.879 347.006C168.063 346.859 168.253 346.683 168.354 346.478C168.989 345.167 167.822 339.686 166.665 338.659C164.342 336.594 161.741 335.128 158.559 334.801C157.858 334.73 157.205 334.209 156.472 333.868L156.475 333.871ZM157.136 295.492C157.302 295.679 157.467 295.87 157.632 296.056C158.641 295.891 159.647 295.726 160.656 295.557C160.426 294.893 160.193 294.224 159.959 293.546C161.393 292.791 160.703 291.441 160.599 290.302C160.584 290.155 159.478 290.105 158.742 289.99C158.62 289.577 158.512 288.909 158.217 288.337C157.955 287.831 157.488 287.436 157.108 286.991C156.709 287.407 156.231 287.774 155.929 288.251C155.66 288.682 155.581 289.235 155.419 289.735C155.254 289.684 155.085 289.634 154.92 289.584C155.19 287.892 155.459 286.2 155.721 284.552H152.309C152.524 285.134 152.589 285.6 152.84 285.913C153.394 286.599 154.069 290.909 153.43 291.383C151.073 293.14 153.078 293.147 154.198 293.513C153.886 294.232 153.58 294.936 153.196 295.816H157.025C156.544 294.943 156.206 294.332 155.789 293.582H158.483C157.948 294.339 157.539 294.914 157.133 295.492H157.136ZM173.44 301.584C163.084 295.751 148.512 295.751 139.802 300.938C151.088 296.724 162.273 297.382 173.44 301.584ZM180.275 320.215C178.935 320.951 178.946 324.931 179.908 326.745C180.038 324.414 180.156 322.316 180.275 320.215ZM133.678 320.305H133.186V325.912C133.337 325.912 133.491 325.912 133.642 325.912C133.653 324.044 134.407 322.169 133.674 320.308L133.678 320.305Z" fill="black"/>
<path d="M170.649 344.722C170.48 344.007 170.383 343.788 170.379 343.562C170.354 338.426 167.312 335.552 162.872 333.979C157.467 332.061 152.205 332.395 147.241 335.574C144.745 337.176 143.301 339.327 143.067 342.29C143.01 343.005 142.891 343.713 142.744 344.88C141.695 343.756 140.88 342.79 139.971 341.924C136.756 338.864 135.183 335.146 135.46 330.707C135.794 325.34 135.909 319.938 136.634 314.619C137.256 310.068 140.23 306.954 144.59 305.503C152.489 302.874 160.484 302.856 168.379 305.474C173.788 307.266 176.511 311.436 176.712 317.18C176.812 320.1 177.322 323.009 177.448 325.93C177.563 328.613 177.405 331.303 177.38 333.99C177.362 335.926 176.694 337.585 175.419 339.047C173.892 340.796 172.427 342.599 170.652 344.715L170.649 344.722ZM139.044 312.345C141.695 310.585 142.877 310.585 145.474 312.374C146.063 312.78 146.576 313.308 147.201 313.642C148.027 314.08 148.904 314.497 149.805 314.694C150.247 314.791 150.804 314.378 151.31 314.195C151.03 313.753 150.836 313.196 150.448 312.898C149.561 312.216 148.613 311.591 147.622 311.07C146.163 310.305 144.709 309.414 143.143 309.008C140.898 308.43 139.044 310.09 139.044 312.349V312.345ZM172.933 313.574C171.748 311.569 170.279 311.016 168.709 311.573C167.061 312.158 165.602 313.254 164.011 314.03C163.045 314.5 161.992 314.798 160.972 315.158C160.391 315.362 159.798 315.531 159.209 315.718C159.615 316.206 159.924 316.925 160.444 317.148C162.503 318.038 164.097 317.018 165.584 315.671C167.549 313.89 169.56 312.162 172.937 313.574H172.933ZM162.226 328.293C160.685 327.995 159.478 328.376 158.451 329.493C157.1 330.958 156.134 330.987 154.733 329.507C153.577 328.282 152.251 327.984 150.52 328.587C151.098 329.227 151.759 329.769 152.514 330.103C153.372 330.484 154.295 330.847 155.215 330.915C156.267 330.994 157.352 330.786 158.411 330.62C158.842 330.552 159.259 330.082 159.647 330.125C161.016 330.279 161.791 329.676 162.222 328.289L162.226 328.293ZM150.606 318.969C148.308 315.966 144.012 315.951 141.824 318.818C142.579 318.512 143.25 318.239 143.487 318.142C144.518 318.886 145.262 319.841 145.933 319.795C146.713 319.737 147.428 318.796 148.401 318.067C148.897 318.268 149.752 318.62 150.606 318.969ZM164.054 318.38C165.73 318.597 166.64 318.857 166.784 319.159C166.234 319.464 165.699 319.762 165.002 320.154C167.38 321.641 168.713 321.17 169.065 318.674C169.65 318.778 170.074 318.857 170.749 318.976C168.612 317.094 166.515 316.964 164.054 318.38ZM163.462 326.113C163.566 327.215 164.004 328.372 163.659 329.198C163.286 330.096 162.179 330.692 161.332 331.475C162.851 331.479 164.008 330.865 164.55 329.467C165.092 328.077 164.46 326.968 163.462 326.113ZM149.859 326.113C148.652 327.032 148.135 328.128 148.642 329.428C149.18 330.811 150.28 331.547 151.943 331.421C148.969 329.378 148.904 329.22 149.859 326.113Z" fill="white"/>
<path d="M156.475 333.871C157.208 334.212 157.862 334.733 158.562 334.805C161.741 335.128 164.345 336.594 166.669 338.663C167.822 339.69 168.993 345.171 168.357 346.482C168.257 346.687 168.066 346.863 167.883 347.01C160.369 353.051 153.297 353.4 145.452 347.193C145.096 346.913 144.834 346.313 144.806 345.846C144.432 340.132 147.956 335.872 153.659 335.071C155.218 334.853 156.158 334.454 156.479 333.875L156.475 333.871ZM163.045 338.731C162.1 335.958 160.825 335.369 158.501 336.109C157.23 336.515 155.843 336.547 154.536 336.856C153.365 337.132 152.233 337.553 150.685 338.034C152.765 337.93 154.302 337.887 155.836 337.765C156.594 337.704 157.373 337.599 158.081 337.341C160.825 336.331 160.85 336.314 163.045 338.731ZM153.476 343.027C155.333 344.137 157.977 344.108 159.385 343.027H153.476ZM160.66 339.629C160.649 339.478 160.638 339.327 160.628 339.173C157.747 339.367 154.866 339.561 151.986 339.755C151.996 339.895 152.007 340.038 152.018 340.178C154.899 339.995 157.779 339.812 160.663 339.625L160.66 339.629Z" fill="white"/>
<path d="M157.136 295.492C157.546 294.914 157.952 294.339 158.487 293.582H155.793C156.206 294.332 156.547 294.943 157.029 295.816H153.2C153.584 294.936 153.889 294.232 154.202 293.513C153.085 293.147 151.077 293.14 153.433 291.383C154.073 290.906 153.397 286.596 152.844 285.913C152.593 285.601 152.528 285.134 152.313 284.552H155.725C155.463 286.197 155.193 287.892 154.924 289.584C155.089 289.634 155.258 289.684 155.423 289.735C155.585 289.236 155.66 288.682 155.933 288.251C156.235 287.774 156.709 287.407 157.111 286.991C157.488 287.436 157.959 287.831 158.221 288.338C158.516 288.909 158.62 289.577 158.746 289.99C159.478 290.105 160.588 290.155 160.603 290.302C160.707 291.441 161.396 292.791 159.963 293.546C160.2 294.225 160.43 294.893 160.66 295.557C159.651 295.722 158.645 295.888 157.636 296.056C157.47 295.87 157.305 295.679 157.14 295.492H157.136Z" fill="white"/>
<path d="M173.44 301.58C162.269 297.378 151.088 296.721 139.802 300.934C148.516 295.747 163.088 295.747 173.44 301.58Z" fill="white"/>
<path d="M180.275 320.211C180.156 322.313 180.038 324.41 179.909 326.741C178.946 324.928 178.935 320.951 180.275 320.211Z" fill="white"/>
<path d="M133.678 320.301C134.411 322.165 133.657 324.037 133.646 325.905C133.495 325.905 133.34 325.905 133.19 325.905V320.301H133.682H133.678Z" fill="white"/>
<path d="M139.044 312.345C139.044 310.086 140.894 308.427 143.143 309.005C144.709 309.411 146.163 310.302 147.622 311.067C148.613 311.588 149.561 312.213 150.448 312.895C150.84 313.193 151.03 313.753 151.31 314.192C150.804 314.375 150.251 314.788 149.805 314.691C148.9 314.493 148.028 314.077 147.201 313.639C146.576 313.308 146.063 312.776 145.474 312.371C142.88 310.582 141.695 310.582 139.044 312.342V312.345Z" fill="black"/>
<path d="M172.937 313.578C169.56 312.166 167.553 313.894 165.584 315.675C164.097 317.022 162.506 318.042 160.444 317.151C159.924 316.925 159.615 316.21 159.209 315.722C159.798 315.535 160.391 315.366 160.972 315.162C161.992 314.802 163.045 314.504 164.011 314.034C165.599 313.258 167.061 312.162 168.709 311.577C170.279 311.017 171.748 311.577 172.933 313.578H172.937Z" fill="black"/>
<path d="M162.229 328.297C161.798 329.683 161.023 330.283 159.654 330.132C159.266 330.089 158.849 330.559 158.418 330.628C157.359 330.793 156.274 331.001 155.222 330.922C154.302 330.854 153.376 330.491 152.521 330.111C151.766 329.776 151.106 329.231 150.527 328.595C152.258 327.991 153.584 328.289 154.74 329.514C156.138 330.994 157.107 330.965 158.458 329.5C159.485 328.383 160.692 328.002 162.233 328.3L162.229 328.297Z" fill="black"/>
<path d="M150.61 318.973C149.755 318.624 148.9 318.272 148.405 318.071C147.431 318.8 146.716 319.741 145.937 319.799C145.265 319.849 144.522 318.89 143.491 318.146C143.25 318.243 142.579 318.516 141.828 318.822C144.015 315.955 148.315 315.97 150.61 318.973Z" fill="black"/>
<path d="M164.058 318.383C166.515 316.968 168.612 317.097 170.753 318.979C170.078 318.857 169.654 318.782 169.068 318.678C168.716 321.177 167.384 321.648 165.006 320.157C165.706 319.766 166.238 319.471 166.788 319.162C166.644 318.861 165.734 318.601 164.058 318.383Z" fill="black"/>
<path d="M163.462 326.116C164.46 326.971 165.092 328.081 164.55 329.471C164.004 330.868 162.851 331.486 161.332 331.479C162.179 330.696 163.282 330.1 163.659 329.202C164.004 328.375 163.566 327.219 163.462 326.116Z" fill="black"/>
<path d="M149.863 326.116C148.907 329.22 148.972 329.381 151.946 331.425C150.283 331.551 149.184 330.814 148.645 329.431C148.139 328.131 148.656 327.036 149.863 326.116Z" fill="black"/>
<path d="M163.045 338.731C160.85 336.314 160.825 336.332 158.081 337.341C157.373 337.6 156.594 337.704 155.836 337.765C154.302 337.887 152.765 337.93 150.685 338.034C152.23 337.553 153.365 337.133 154.536 336.856C155.843 336.547 157.23 336.515 158.501 336.109C160.825 335.369 162.104 335.958 163.045 338.731Z" fill="black"/>
<path d="M153.476 343.027H159.385C157.977 344.108 155.333 344.137 153.476 343.027Z" fill="black"/>
<path d="M160.66 339.629C157.779 339.812 154.899 339.995 152.014 340.182C152.004 340.042 151.993 339.898 151.982 339.758C154.863 339.564 157.743 339.37 160.624 339.176C160.635 339.327 160.646 339.478 160.656 339.632L160.66 339.629Z" fill="black"/>
</svg>
