<svg width="310" height="650" viewBox="0 0 310 650" fill="none" xmlns="http://www.w3.org/2000/svg">
<rect x="103.591" y="126.935" width="14.1627" height="4.95694" rx="2.47847" transform="rotate(-10.8545 103.591 126.935)" fill="black"/>
<path d="M153.095 279.819C136.584 247.86 118.008 167.025 110.784 130.603" stroke="black" stroke-width="4"/>
<path d="M141.229 65.6396C146.311 92.1421 120.964 125.406 111.656 125.748C93.4927 130.673 65.6658 102.12 60.2608 83.3321C53.5495 53.971 66.4402 30.954 92.0913 27.4774C116.289 22.8376 135.495 35.7346 141.229 65.6396Z" fill="#3F37C9"/>
<path d="M80.1461 41.0036C76.1435 43.4465 65.5589 51.559 68.0908 65.7649" stroke="white" stroke-opacity="0.3" stroke-width="5.66507" stroke-linecap="round"/>
<rect x="138.841" y="99.9131" width="14.1627" height="4.95694" rx="2.47847" fill="black"/>
<path d="M152.328 279.371C153.085 280.176 154.35 280.214 155.155 279.457C155.959 278.7 155.997 277.434 155.24 276.63L152.328 279.371ZM163.98 176.038L165.682 177.088L165.695 177.067L165.708 177.045L163.98 176.038ZM155.24 276.63C155.462 276.865 155.511 277.059 155.444 276.894C155.409 276.805 155.353 276.644 155.28 276.391C155.136 275.892 154.963 275.17 154.767 274.233C154.376 272.368 153.917 269.772 153.43 266.654C152.455 260.424 151.376 252.192 150.497 243.728C149.618 235.259 148.941 226.592 148.765 219.481C148.677 215.922 148.716 212.789 148.909 210.282C149.109 207.692 149.46 206.034 149.847 205.235L146.248 203.49C145.502 205.029 145.123 207.361 144.921 209.974C144.713 212.671 144.677 215.953 144.767 219.58C144.946 226.838 145.634 235.62 146.519 244.141C147.404 252.667 148.491 260.967 149.478 267.272C149.97 270.421 150.441 273.093 150.852 275.054C151.057 276.03 151.253 276.862 151.437 277.5C151.528 277.816 151.626 278.12 151.733 278.385C151.808 278.573 151.988 279.01 152.328 279.371L155.24 276.63ZM149.847 205.235C154.332 195.984 162.266 182.625 165.682 177.088L162.278 174.987C158.849 180.544 150.826 194.047 146.248 203.49L149.847 205.235ZM165.708 177.045C168.558 172.16 171.037 160.084 160.083 149.131L157.255 151.959C166.696 161.4 164.36 171.418 162.253 175.03L165.708 177.045ZM160.083 149.131C155.4 144.447 152.196 136.242 150.154 127.542C148.13 118.926 147.33 110.197 147.214 104.827L143.215 104.913C143.336 110.519 144.164 119.53 146.259 128.457C148.336 137.301 151.741 146.445 157.255 151.959L160.083 149.131Z" fill="black"/>
<path d="M187.349 46.8029C187.349 73.7882 156.191 101.683 146.985 100.267C128.219 101.683 106.267 68.401 104.497 48.9313C103.435 18.8316 120.43 -1.34602 146.276 0.0700658C170.915 0.0700658 187.349 16.3531 187.349 46.8029Z" fill="#4361EE"/>
<path d="M131.998 11.1045C127.607 12.7499 115.684 18.724 115.495 33.1525" stroke="white" stroke-opacity="0.3" stroke-width="5.66507" stroke-linecap="round"/>
<rect x="190.327" y="111.066" width="14.1627" height="4.95694" rx="2.47847" transform="rotate(9.00973 190.327 111.066)" fill="black"/>
<path d="M144.596 279.876C145.218 280.789 146.462 281.025 147.375 280.404C148.288 279.782 148.524 278.538 147.902 277.625L144.596 279.876ZM203.234 190.188L204.751 191.492L204.767 191.473L204.782 191.454L203.234 190.188ZM147.902 277.625C148.112 277.932 148.167 278.217 148.184 278.346C148.202 278.484 148.194 278.573 148.192 278.586C148.19 278.606 148.197 278.536 148.257 278.338C148.373 277.952 148.603 277.363 148.966 276.557C149.684 274.963 150.818 272.753 152.268 270.088C155.163 264.77 159.239 257.783 163.561 250.581C172.216 236.16 181.776 221.012 184.703 216.812L181.421 214.525C178.408 218.848 168.786 234.102 160.132 248.522C155.8 255.74 151.69 262.784 148.755 268.176C147.291 270.865 146.1 273.18 145.319 274.914C144.932 275.773 144.618 276.548 144.427 277.183C144.333 277.495 144.245 277.848 144.211 278.201C144.188 278.44 144.126 279.185 144.596 279.876L147.902 277.625ZM184.703 216.812C190.581 208.378 200.509 196.426 204.751 191.492L201.717 188.884C197.461 193.836 187.422 205.915 181.421 214.525L184.703 216.812ZM204.782 191.454C208.362 187.075 212.702 175.536 203.599 163.003L200.362 165.353C208.208 176.156 204.332 185.685 201.686 188.922L204.782 191.454ZM203.599 163.003C199.707 157.644 197.827 149.039 197.172 140.126C196.524 131.299 197.1 122.552 197.826 117.231L193.863 116.689C193.104 122.245 192.511 131.274 193.183 140.419C193.849 149.479 195.78 159.044 200.362 165.353L203.599 163.003Z" fill="black"/>
<path d="M246.552 66.2075C242.326 92.8599 207.184 115.531 198.314 112.691C179.558 111.151 163.089 74.8416 164.39 55.335C168.054 25.4403 187.999 8.17302 213.305 13.6193C237.64 17.4778 251.321 36.1335 246.552 66.2075Z" fill="#4CC9F0"/>
<path d="M197.475 22.2816C192.88 23.2191 180.169 27.2523 177.723 41.4732" stroke="white" stroke-opacity="0.3" stroke-width="5.66507" stroke-linecap="round"/>
<rect x="129.397" y="162.808" width="14.1627" height="4.95694" rx="2.47847" fill="black"/>
<path d="M155.5 278.5C145.303 268.303 136.006 178.741 135.77 167.765" stroke="black" stroke-width="4"/>
<path d="M177.904 109.697C177.904 136.683 146.746 164.578 137.541 163.162C118.775 164.578 96.823 131.295 95.0527 111.826C93.9906 81.7261 110.985 61.5485 136.832 62.9646C161.471 62.9646 177.904 79.2477 177.904 109.697Z" fill="#480CA8"/>
<path d="M122.553 74C118.162 75.6454 106.24 81.6195 106.051 96.048" stroke="white" stroke-opacity="0.3" stroke-width="5.66507" stroke-linecap="round"/>
<rect x="209.742" y="147.44" width="14.1627" height="4.95694" rx="2.47847" fill="black"/>
<path d="M148.249 279.25C138.052 269.053 216.351 163.374 216.115 152.397" stroke="black" stroke-width="4"/>
<path d="M258.25 94.3302C258.25 121.316 227.092 149.211 217.886 147.794C199.12 149.211 177.168 115.928 175.398 96.4586C174.336 66.3589 191.33 46.1813 217.177 47.5974C241.816 47.5974 258.25 63.8805 258.25 94.3302Z" fill="#7209B7"/>
<path d="M202.899 58.6328C198.508 60.2782 186.585 66.2523 186.396 80.6808" stroke="white" stroke-opacity="0.3" stroke-width="5.66507" stroke-linecap="round"/>
<path d="M154 390C158.775 390 164.033 393.567 168.717 402.139C173.322 410.563 176.805 422.919 178.282 438.104C178.687 442.269 175.282 446 170.701 446H166.556C165.972 446 165.389 445.936 164.819 445.809L163.95 449.714L164.819 445.809L157.434 444.166C155.18 443.665 152.845 443.657 150.588 444.143L142.807 445.82L143.65 449.731L142.807 445.82C142.253 445.94 141.688 446 141.121 446H137.908C133.209 446 129.66 442.03 130.177 437.6C132.237 419.963 135.581 407.803 139.86 400.162C144.039 392.699 148.794 390 154 390Z" fill="white" stroke="black" stroke-width="8"/>
<path d="M154 345L154 366.794L154 389" stroke="black" stroke-width="8"/>
<path d="M158 433C158 430.791 156.209 429 154 429C151.791 429 150 430.791 150 433H158ZM150 433V440.43H158V433H150ZM150 440.43V448H158V440.43H150Z" fill="black"/>
<path d="M141 471.5L143.59 474.548L145 473.35V471.5H141ZM128.409 476.952C126.726 478.383 126.521 480.907 127.952 482.591C129.383 484.274 131.907 484.479 133.59 483.048L128.409 476.952ZM137 445V471.5H145V445H137ZM138.409 468.452L128.409 476.952L133.59 483.048L143.59 474.548L138.409 468.452Z" fill="black"/>
<path d="M171 469.5L168.409 472.548L167 471.35V469.5H171ZM183.59 474.952C185.274 476.383 185.478 478.907 184.048 480.591C182.617 482.274 180.093 482.479 178.409 481.048L183.59 474.952ZM175 443V469.5H167V443H175ZM173.59 466.452L183.59 474.952L178.409 481.048L168.409 472.548L173.59 466.452Z" fill="black"/>
<path d="M155 359.5C220 346.5 191.5 282 169 277.5" stroke="black" stroke-width="8"/>
<path d="M153.031 359C88.0311 346 116.531 281.5 139.031 277" stroke="black" stroke-width="8"/>
<path d="M137 277C149.4 277 164.167 277.5 170 277.5" stroke="black" stroke-width="8" stroke-linecap="round" stroke-linejoin="round"/>
<path d="M127 309.935C127 309.457 127 308.976 127 308.498C127.812 307.414 128.641 306.343 129.417 305.233C129.672 304.867 129.963 304.4 129.949 303.991C129.78 299.677 131.177 295.679 132.305 291.617C132.887 289.53 134.083 287.946 135.987 287.041C137.639 286.258 139.392 285.6 141.17 285.18C144.683 284.347 148.242 283.715 151.784 283C152.98 283 154.179 283 155.375 283C157.049 283.359 158.73 283.675 160.39 284.085C163.784 284.922 167.211 285.672 170.537 286.732C172.595 287.386 174.143 288.984 174.692 291.11C175.763 295.234 177.447 299.242 177.185 303.646C177.153 304.206 177.533 304.853 177.871 305.366C178.582 306.447 179.39 307.464 180.159 308.506V309.942C178.568 311.314 178.054 313.021 178.406 315.089C178.51 315.696 178.18 316.372 178.115 317.022C178.069 317.471 178.083 317.945 178.169 318.387C178.453 319.874 179.028 321.35 179.038 322.837C179.064 325.57 178.794 328.307 178.589 331.041C178.543 331.677 178.449 332.524 178.036 332.876C176.901 333.85 176.944 335.135 176.661 336.385C176.097 338.882 175.666 341.457 174.689 343.795C172.577 348.853 169.477 353.263 164.477 355.878C161.55 357.408 158.418 358.554 155.379 359.869H151.428C147.351 359.237 143.957 357.064 140.757 354.722C134.381 350.056 131.138 343.515 130.182 335.757C130.096 335.067 129.891 334.388 129.697 333.717C129.363 332.564 128.857 331.443 128.67 330.269C128.455 328.929 128.512 327.546 128.448 326.181C128.358 324.281 128.142 322.374 128.232 320.481C128.275 319.604 129.428 318.559 129.187 317.931C128.189 315.319 129.884 311.979 127 309.935ZM167.649 344.722C169.423 342.606 170.889 340.803 172.415 339.054C173.69 337.592 174.358 335.933 174.376 333.997C174.401 331.31 174.559 328.616 174.444 325.937C174.319 323.013 173.812 320.107 173.708 317.187C173.507 311.444 170.784 307.274 165.375 305.481C157.48 302.863 149.485 302.881 141.586 305.51C137.226 306.961 134.252 310.075 133.631 314.626C132.905 319.942 132.79 325.344 132.456 330.714C132.179 335.153 133.753 338.871 136.967 341.931C137.876 342.797 138.691 343.763 139.74 344.887C139.887 343.72 140.01 343.012 140.063 342.298C140.297 339.334 141.741 337.179 144.237 335.581C149.201 332.398 154.46 332.064 159.869 333.986C164.308 335.563 167.351 338.436 167.376 343.569C167.376 343.792 167.476 344.014 167.645 344.729L167.649 344.722ZM153.475 333.871C153.155 334.448 152.215 334.847 150.656 335.067C144.952 335.868 141.428 340.132 141.802 345.843C141.834 346.31 142.093 346.909 142.448 347.19C150.293 353.396 157.362 353.048 164.879 347.006C165.063 346.859 165.253 346.683 165.354 346.478C165.989 345.167 164.822 339.686 163.665 338.659C161.342 336.594 158.741 335.128 155.559 334.801C154.858 334.73 154.205 334.209 153.472 333.868L153.475 333.871ZM154.136 295.492C154.302 295.679 154.467 295.87 154.632 296.056C155.641 295.891 156.647 295.726 157.656 295.557C157.426 294.893 157.193 294.224 156.959 293.546C158.393 292.791 157.703 291.441 157.599 290.302C157.584 290.155 156.478 290.105 155.742 289.99C155.62 289.577 155.512 288.909 155.217 288.337C154.955 287.831 154.488 287.436 154.108 286.991C153.709 287.407 153.231 287.774 152.929 288.251C152.66 288.682 152.581 289.235 152.419 289.735C152.254 289.684 152.085 289.634 151.92 289.584C152.19 287.892 152.459 286.2 152.721 284.552H149.309C149.524 285.134 149.589 285.6 149.84 285.913C150.394 286.599 151.069 290.909 150.43 291.383C148.073 293.14 150.078 293.147 151.198 293.513C150.886 294.232 150.58 294.936 150.196 295.816H154.025C153.544 294.943 153.206 294.332 152.789 293.582H155.483C154.948 294.339 154.539 294.914 154.133 295.492H154.136ZM170.44 301.584C160.084 295.751 145.512 295.751 136.802 300.938C148.088 296.724 159.273 297.382 170.44 301.584ZM177.275 320.215C175.935 320.951 175.946 324.931 176.908 326.745C177.038 324.414 177.156 322.316 177.275 320.215ZM130.678 320.305H130.186V325.912C130.337 325.912 130.491 325.912 130.642 325.912C130.653 324.044 131.407 322.169 130.674 320.308L130.678 320.305Z" fill="black"/>
<path d="M167.649 344.722C167.48 344.007 167.383 343.788 167.379 343.562C167.354 338.426 164.312 335.552 159.872 333.979C154.467 332.061 149.205 332.395 144.241 335.574C141.745 337.176 140.301 339.327 140.067 342.29C140.01 343.005 139.891 343.713 139.744 344.88C138.695 343.756 137.88 342.79 136.971 341.924C133.756 338.864 132.183 335.146 132.46 330.707C132.794 325.34 132.909 319.938 133.634 314.619C134.256 310.068 137.23 306.954 141.59 305.503C149.489 302.874 157.484 302.856 165.379 305.474C170.788 307.266 173.511 311.436 173.712 317.18C173.812 320.1 174.322 323.009 174.448 325.93C174.563 328.613 174.405 331.303 174.38 333.99C174.362 335.926 173.694 337.585 172.419 339.047C170.892 340.796 169.427 342.599 167.652 344.715L167.649 344.722ZM136.044 312.345C138.695 310.585 139.877 310.585 142.474 312.374C143.063 312.78 143.576 313.308 144.201 313.642C145.027 314.08 145.904 314.497 146.805 314.694C147.247 314.791 147.804 314.378 148.31 314.195C148.03 313.753 147.836 313.196 147.448 312.898C146.561 312.216 145.613 311.591 144.622 311.07C143.163 310.305 141.709 309.414 140.143 309.008C137.898 308.43 136.044 310.09 136.044 312.349V312.345ZM169.933 313.574C168.748 311.569 167.279 311.016 165.709 311.573C164.061 312.158 162.602 313.254 161.011 314.03C160.045 314.5 158.992 314.798 157.972 315.158C157.391 315.362 156.798 315.531 156.209 315.718C156.615 316.206 156.924 316.925 157.444 317.148C159.503 318.038 161.097 317.018 162.584 315.671C164.549 313.89 166.56 312.162 169.937 313.574H169.933ZM159.226 328.293C157.685 327.995 156.478 328.376 155.451 329.493C154.1 330.958 153.134 330.987 151.733 329.507C150.577 328.282 149.251 327.984 147.52 328.587C148.098 329.227 148.759 329.769 149.514 330.103C150.372 330.484 151.295 330.847 152.215 330.915C153.267 330.994 154.352 330.786 155.411 330.62C155.842 330.552 156.259 330.082 156.647 330.125C158.016 330.279 158.791 329.676 159.222 328.289L159.226 328.293ZM147.606 318.969C145.308 315.966 141.012 315.951 138.824 318.818C139.579 318.512 140.25 318.239 140.487 318.142C141.518 318.886 142.262 319.841 142.933 319.795C143.713 319.737 144.428 318.796 145.401 318.067C145.897 318.268 146.752 318.62 147.606 318.969ZM161.054 318.38C162.73 318.597 163.64 318.857 163.784 319.159C163.234 319.464 162.699 319.762 162.002 320.154C164.38 321.641 165.713 321.17 166.065 318.674C166.65 318.778 167.074 318.857 167.749 318.976C165.612 317.094 163.515 316.964 161.054 318.38ZM160.462 326.113C160.566 327.215 161.004 328.372 160.659 329.198C160.286 330.096 159.179 330.692 158.332 331.475C159.851 331.479 161.008 330.865 161.55 329.467C162.092 328.077 161.46 326.968 160.462 326.113ZM146.859 326.113C145.652 327.032 145.135 328.128 145.642 329.428C146.18 330.811 147.28 331.547 148.943 331.421C145.969 329.378 145.904 329.22 146.859 326.113Z" fill="white"/>
<path d="M153.475 333.871C154.208 334.212 154.862 334.733 155.562 334.805C158.741 335.128 161.345 336.594 163.669 338.663C164.822 339.69 165.993 345.171 165.357 346.482C165.257 346.687 165.066 346.863 164.883 347.01C157.369 353.051 150.297 353.4 142.452 347.193C142.096 346.913 141.834 346.313 141.806 345.846C141.432 340.132 144.956 335.872 150.659 335.071C152.218 334.853 153.158 334.454 153.479 333.875L153.475 333.871ZM160.045 338.731C159.1 335.958 157.825 335.369 155.501 336.109C154.23 336.515 152.843 336.547 151.536 336.856C150.365 337.132 149.233 337.553 147.685 338.034C149.765 337.93 151.302 337.887 152.836 337.765C153.594 337.704 154.373 337.599 155.081 337.341C157.825 336.331 157.85 336.314 160.045 338.731ZM150.476 343.027C152.333 344.137 154.977 344.108 156.385 343.027H150.476ZM157.66 339.629C157.649 339.478 157.638 339.327 157.628 339.173C154.747 339.367 151.866 339.561 148.986 339.755C148.996 339.895 149.007 340.038 149.018 340.178C151.899 339.995 154.779 339.812 157.663 339.625L157.66 339.629Z" fill="white"/>
<path d="M154.136 295.492C154.546 294.914 154.952 294.339 155.487 293.582H152.793C153.206 294.332 153.547 294.943 154.029 295.816H150.2C150.584 294.936 150.889 294.232 151.202 293.513C150.085 293.147 148.077 293.14 150.433 291.383C151.073 290.906 150.397 286.596 149.844 285.913C149.593 285.601 149.528 285.134 149.313 284.552H152.725C152.463 286.197 152.193 287.892 151.924 289.584C152.089 289.634 152.258 289.684 152.423 289.735C152.585 289.236 152.66 288.682 152.933 288.251C153.235 287.774 153.709 287.407 154.111 286.991C154.488 287.436 154.959 287.831 155.221 288.338C155.516 288.909 155.62 289.577 155.746 289.99C156.478 290.105 157.588 290.155 157.603 290.302C157.707 291.441 158.396 292.791 156.963 293.546C157.2 294.225 157.43 294.893 157.66 295.557C156.651 295.722 155.645 295.888 154.636 296.056C154.47 295.87 154.305 295.679 154.14 295.492H154.136Z" fill="white"/>
<path d="M170.44 301.58C159.269 297.378 148.088 296.721 136.802 300.934C145.516 295.747 160.088 295.747 170.44 301.58Z" fill="white"/>
<path d="M177.275 320.211C177.156 322.313 177.038 324.41 176.909 326.741C175.946 324.928 175.935 320.951 177.275 320.211Z" fill="white"/>
<path d="M130.678 320.301C131.411 322.165 130.657 324.037 130.646 325.905C130.495 325.905 130.34 325.905 130.19 325.905V320.301H130.682H130.678Z" fill="white"/>
<path d="M136.044 312.345C136.044 310.086 137.894 308.427 140.143 309.005C141.709 309.411 143.163 310.302 144.622 311.067C145.613 311.588 146.561 312.213 147.448 312.895C147.84 313.193 148.03 313.753 148.31 314.192C147.804 314.375 147.251 314.788 146.805 314.691C145.9 314.493 145.028 314.077 144.201 313.639C143.576 313.308 143.063 312.776 142.474 312.371C139.88 310.582 138.695 310.582 136.044 312.342V312.345Z" fill="black"/>
<path d="M169.937 313.578C166.56 312.166 164.553 313.894 162.584 315.675C161.097 317.022 159.506 318.042 157.444 317.151C156.924 316.925 156.615 316.21 156.209 315.722C156.798 315.535 157.391 315.366 157.972 315.162C158.992 314.802 160.045 314.504 161.011 314.034C162.599 313.258 164.061 312.162 165.709 311.577C167.279 311.017 168.748 311.577 169.933 313.578H169.937Z" fill="black"/>
<path d="M159.229 328.297C158.798 329.683 158.023 330.283 156.654 330.132C156.266 330.089 155.849 330.559 155.418 330.628C154.359 330.793 153.274 331.001 152.222 330.922C151.302 330.854 150.376 330.491 149.521 330.111C148.766 329.776 148.106 329.231 147.527 328.595C149.258 327.991 150.584 328.289 151.74 329.514C153.138 330.994 154.107 330.965 155.458 329.5C156.485 328.383 157.692 328.002 159.233 328.3L159.229 328.297Z" fill="black"/>
<path d="M147.61 318.973C146.755 318.624 145.9 318.272 145.405 318.071C144.431 318.8 143.716 319.741 142.937 319.799C142.265 319.849 141.522 318.89 140.491 318.146C140.25 318.243 139.579 318.516 138.828 318.822C141.015 315.955 145.315 315.97 147.61 318.973Z" fill="black"/>
<path d="M161.058 318.383C163.515 316.968 165.612 317.097 167.753 318.979C167.078 318.857 166.654 318.782 166.068 318.678C165.716 321.177 164.384 321.648 162.006 320.157C162.706 319.766 163.238 319.471 163.788 319.162C163.644 318.861 162.734 318.601 161.058 318.383Z" fill="black"/>
<path d="M160.462 326.116C161.46 326.971 162.092 328.081 161.55 329.471C161.004 330.868 159.851 331.486 158.332 331.479C159.179 330.696 160.282 330.1 160.659 329.202C161.004 328.375 160.566 327.219 160.462 326.116Z" fill="black"/>
<path d="M146.863 326.116C145.907 329.22 145.972 329.381 148.946 331.425C147.283 331.551 146.184 330.814 145.645 329.431C145.139 328.131 145.656 327.036 146.863 326.116Z" fill="black"/>
<path d="M160.045 338.731C157.85 336.314 157.825 336.332 155.081 337.341C154.373 337.6 153.594 337.704 152.836 337.765C151.302 337.887 149.765 337.93 147.685 338.034C149.23 337.553 150.365 337.133 151.536 336.856C152.843 336.547 154.23 336.515 155.501 336.109C157.825 335.369 159.104 335.958 160.045 338.731Z" fill="black"/>
<path d="M150.476 343.027H156.385C154.977 344.108 152.333 344.137 150.476 343.027Z" fill="black"/>
<path d="M157.66 339.629C154.779 339.812 151.899 339.995 149.014 340.182C149.004 340.042 148.993 339.898 148.982 339.758C151.863 339.564 154.743 339.37 157.624 339.176C157.635 339.327 157.646 339.478 157.656 339.632L157.66 339.629Z" fill="black"/>
</svg>
