<svg width="310" height="650" viewBox="0 0 310 650" fill="none" xmlns="http://www.w3.org/2000/svg">
<g clip-path="url(#clip0_375_379)">
<path d="M154.549 576.331C159.325 576.331 164.582 579.898 169.267 588.47C173.871 596.894 177.355 609.25 178.832 624.435C179.237 628.6 175.831 632.331 171.25 632.331H167.106C166.521 632.331 165.939 632.267 165.368 632.14L157.983 630.497C155.73 629.996 153.395 629.988 151.138 630.474L143.356 632.151C142.803 632.271 142.238 632.331 141.671 632.331H138.457C133.758 632.331 130.209 628.361 130.727 623.931C132.786 606.294 136.131 594.134 140.41 586.493C144.589 579.03 149.344 576.331 154.549 576.331Z" fill="white" stroke="black" stroke-width="8"/>
<path d="M154.549 531.331L154.549 553.125L154.549 575.331" stroke="black" stroke-width="8"/>
<path d="M158.549 619.331C158.549 617.122 156.759 615.331 154.549 615.331C152.34 615.331 150.549 617.122 150.549 619.331H158.549ZM150.549 619.331V626.761H158.549V619.331H150.549ZM150.549 626.761V634.331H158.549V626.761H150.549Z" fill="black"/>
<path d="M120.519 645.902L119.317 649.717L121.082 650.273L122.648 649.288L120.519 645.902ZM109.201 638.145C107.094 637.482 104.848 638.652 104.185 640.759C103.521 642.867 104.692 645.113 106.799 645.776L109.201 638.145ZM140.824 628.41L118.39 642.516L122.648 649.288L145.082 635.183L140.824 628.41ZM121.72 642.087L109.201 638.145L106.799 645.776L119.317 649.717L121.72 642.087Z" fill="black"/>
<path d="M190.52 642.635L192.357 646.188L190.714 647.037L189.003 646.336L190.52 642.635ZM200.34 633.053C202.302 632.038 204.716 632.806 205.731 634.768C206.745 636.731 205.977 639.144 204.015 640.159L200.34 633.053ZM167.517 628.883L192.037 638.934L189.003 646.336L164.483 636.285L167.517 628.883ZM188.682 639.082L200.34 633.053L204.015 640.159L192.357 646.188L188.682 639.082Z" fill="black"/>
<path d="M184.842 586.375C183.486 588.119 183.8 590.632 185.544 591.989C187.288 593.345 189.801 593.031 191.157 591.287L184.842 586.375ZM156.324 549.755C173.024 546.458 183.61 551.44 188.302 558.486C193.007 565.551 192.789 576.159 184.842 586.375L191.157 591.287C200.711 579.003 201.993 564.612 194.96 554.051C187.915 543.472 173.525 538.204 154.775 541.906L156.324 549.755Z" fill="black"/>
<path d="M123.838 596.127C125.055 597.97 124.548 600.451 122.704 601.669C120.861 602.886 118.38 602.379 117.162 600.535L123.838 596.127ZM153.581 549.331C138.068 549.331 126.87 555.517 121.447 564.041C116.105 572.438 115.811 583.973 123.838 596.127L117.162 600.535C107.688 586.189 107.395 571.224 114.698 559.746C121.92 548.395 136.013 541.331 153.581 541.331V549.331Z" fill="black"/>
<path d="M181.101 501.22C181.778 509.571 179.174 518.102 174.366 524.692C169.561 531.276 162.71 535.733 154.977 536.359C147.244 536.986 139.764 533.691 133.962 527.966C128.155 522.237 124.212 514.237 123.535 505.886C122.184 489.218 134.095 474.845 149.887 473.565C165.68 472.285 179.75 484.552 181.101 501.22Z" fill="white" stroke="black" stroke-width="6"/>
<ellipse cx="142.049" cy="502.831" rx="3.5" ry="4.5" fill="black"/>
<path d="M147.549 521.498L153.5 519.331H160.549" stroke="black" stroke-width="3.46667" stroke-linecap="round" stroke-linejoin="round"/>
<ellipse cx="162.049" cy="498.831" rx="3.5" ry="4.5" fill="black"/>
</g>
<defs>
<clipPath id="clip0_375_379">
<rect width="310" height="650" fill="white"/>
</clipPath>
</defs>
</svg>
