<svg width="310" height="650" viewBox="0 0 310 650" fill="none" xmlns="http://www.w3.org/2000/svg">
<rect x="144.391" y="99.9126" width="14.1627" height="4.95694" rx="2.47847" fill="black"/>
<path d="M157.878 279.371C158.635 280.175 159.9 280.213 160.705 279.456C161.509 278.699 161.547 277.434 160.79 276.629L157.878 279.371ZM169.53 176.037L171.232 177.087L171.245 177.066L171.258 177.045L169.53 176.037ZM160.79 276.629C161.012 276.865 161.061 277.059 160.994 276.893C160.959 276.804 160.903 276.643 160.83 276.391C160.686 275.891 160.513 275.17 160.317 274.233C159.926 272.367 159.467 269.771 158.98 266.653C158.005 260.423 156.926 252.192 156.047 243.727C155.168 235.258 154.492 226.591 154.315 219.48C154.227 215.922 154.266 212.789 154.459 210.282C154.659 207.692 155.01 206.033 155.397 205.235L151.798 203.49C151.052 205.028 150.673 207.361 150.471 209.974C150.263 212.67 150.227 215.953 150.317 219.579C150.496 226.838 151.184 235.62 152.069 244.141C152.954 252.667 154.041 260.967 155.028 267.271C155.52 270.42 155.991 273.092 156.402 275.053C156.607 276.03 156.803 276.861 156.987 277.499C157.078 277.816 157.176 278.119 157.283 278.384C157.358 278.573 157.538 279.01 157.878 279.371L160.79 276.629ZM155.397 205.235C159.882 195.984 167.816 182.625 171.232 177.087L167.828 174.987C164.4 180.544 156.376 194.046 151.798 203.49L155.397 205.235ZM171.258 177.045C174.108 172.159 176.587 160.083 165.633 149.13L162.805 151.958C172.246 161.399 169.91 171.417 167.803 175.029L171.258 177.045ZM165.633 149.13C160.95 144.447 157.746 136.242 155.704 127.542C153.68 118.925 152.88 110.196 152.764 104.827L148.765 104.913C148.886 110.519 149.714 119.529 151.809 128.456C153.886 137.3 157.291 146.445 162.805 151.958L165.633 149.13Z" fill="black"/>
<path d="M192.899 46.8029C192.899 73.7882 161.741 101.683 152.535 100.267C133.77 101.683 111.817 68.401 110.047 48.9313C108.985 18.8316 125.98 -1.34602 151.826 0.0700658C176.465 0.0700658 192.899 16.3531 192.899 46.8029Z" fill="#4361EE"/>
<path d="M137.548 11.105C133.157 12.7504 121.234 18.7245 121.045 33.153" stroke="white" stroke-opacity="0.3" stroke-width="5.66507" stroke-linecap="round"/>
<path d="M159.549 390C164.325 390 169.582 393.567 174.267 402.139C178.871 410.563 182.355 422.919 183.832 438.104C184.237 442.269 180.831 446 176.25 446H172.106C171.521 446 170.939 445.936 170.368 445.809L169.5 449.714L170.368 445.809L162.983 444.166C160.73 443.665 158.395 443.657 156.138 444.143L148.356 445.82L149.199 449.731L148.356 445.82C147.803 445.94 147.238 446 146.671 446H143.457C138.758 446 135.209 442.03 135.727 437.6C137.786 419.963 141.131 407.803 145.41 400.162C149.589 392.699 154.344 390 159.549 390Z" fill="white" stroke="black" stroke-width="8"/>
<path d="M159.549 345L159.549 366.794L159.549 389" stroke="black" stroke-width="8"/>
<path d="M163.549 433C163.549 430.791 161.759 429 159.549 429C157.34 429 155.549 430.791 155.549 433H163.549ZM155.549 433V440.43H163.549V433H155.549ZM155.549 440.43V448H163.549V440.43H155.549Z" fill="black"/>
<path d="M146.549 471.5L149.14 474.548L150.549 473.35V471.5H146.549ZM133.959 476.952C132.276 478.383 132.071 480.907 133.502 482.591C134.932 484.274 137.457 484.479 139.14 483.048L133.959 476.952ZM142.549 445V471.5H150.549V445H142.549ZM143.959 468.452L133.959 476.952L139.14 483.048L149.14 474.548L143.959 468.452Z" fill="black"/>
<path d="M176.549 469.5L173.959 472.548L172.549 471.35V469.5H176.549ZM189.14 474.952C190.823 476.383 191.028 478.907 189.597 480.591C188.166 482.274 185.642 482.479 183.959 481.048L189.14 474.952ZM180.549 443V469.5H172.549V443H180.549ZM179.14 466.452L189.14 474.952L183.959 481.048L173.959 472.548L179.14 466.452Z" fill="black"/>
<path d="M160.549 359.5C225.549 346.5 197.049 282 174.549 277.5" stroke="black" stroke-width="8"/>
<path d="M132.838 430.296C134.056 432.139 133.548 434.62 131.705 435.838C129.861 437.055 127.38 436.548 126.163 434.704L132.838 430.296ZM158.581 363C144.293 363 133.813 373.084 128.844 387.145C123.859 401.252 124.901 418.277 132.838 430.296L126.163 434.704C116.599 420.223 115.641 400.498 121.301 384.48C126.977 368.416 139.788 355 158.581 355V363Z" fill="black"/>
<path d="M155.5 273.5C167.9 273.5 169.717 277.5 175.55 277.5" stroke="black" stroke-width="8" stroke-linecap="round" stroke-linejoin="round"/>
<path d="M133 309.935C133 309.457 133 308.976 133 308.498C133.812 307.414 134.641 306.343 135.417 305.233C135.672 304.867 135.963 304.4 135.949 303.991C135.78 299.677 137.177 295.679 138.305 291.617C138.887 289.53 140.083 287.946 141.987 287.041C143.639 286.258 145.392 285.6 147.17 285.18C150.683 284.347 154.242 283.715 157.784 283C158.98 283 160.179 283 161.375 283C163.049 283.359 164.73 283.675 166.39 284.085C169.784 284.922 173.211 285.672 176.537 286.732C178.595 287.386 180.143 288.984 180.692 291.11C181.763 295.234 183.447 299.242 183.185 303.646C183.153 304.206 183.533 304.853 183.871 305.366C184.582 306.447 185.39 307.464 186.159 308.506V309.942C184.568 311.314 184.054 313.021 184.406 315.089C184.51 315.696 184.18 316.372 184.115 317.022C184.069 317.471 184.083 317.945 184.169 318.387C184.453 319.874 185.028 321.35 185.038 322.837C185.064 325.57 184.794 328.307 184.589 331.041C184.543 331.677 184.449 332.524 184.036 332.876C182.901 333.85 182.944 335.135 182.661 336.385C182.097 338.882 181.666 341.457 180.689 343.795C178.577 348.853 175.477 353.263 170.477 355.878C167.55 357.408 164.418 358.554 161.379 359.869H157.428C153.351 359.237 149.957 357.064 146.757 354.722C140.381 350.056 137.138 343.515 136.182 335.757C136.096 335.067 135.891 334.388 135.697 333.717C135.363 332.564 134.857 331.443 134.67 330.269C134.455 328.929 134.512 327.546 134.448 326.181C134.358 324.281 134.142 322.374 134.232 320.481C134.275 319.604 135.428 318.559 135.187 317.931C134.189 315.319 135.884 311.979 133 309.935ZM173.649 344.722C175.423 342.606 176.889 340.803 178.415 339.054C179.69 337.592 180.358 335.933 180.376 333.997C180.401 331.31 180.559 328.616 180.444 325.937C180.319 323.013 179.812 320.107 179.708 317.187C179.507 311.444 176.784 307.274 171.375 305.481C163.48 302.863 155.485 302.881 147.586 305.51C143.226 306.961 140.252 310.075 139.631 314.626C138.905 319.942 138.79 325.344 138.456 330.714C138.179 335.153 139.753 338.871 142.967 341.931C143.876 342.797 144.691 343.763 145.74 344.887C145.887 343.72 146.01 343.012 146.063 342.298C146.297 339.334 147.741 337.179 150.237 335.581C155.201 332.398 160.46 332.064 165.869 333.986C170.308 335.563 173.351 338.436 173.376 343.569C173.376 343.792 173.476 344.014 173.645 344.729L173.649 344.722ZM159.475 333.871C159.155 334.448 158.215 334.847 156.656 335.067C150.952 335.868 147.428 340.132 147.802 345.843C147.834 346.31 148.093 346.909 148.448 347.19C156.293 353.396 163.362 353.048 170.879 347.006C171.063 346.859 171.253 346.683 171.354 346.478C171.989 345.167 170.822 339.686 169.665 338.659C167.342 336.594 164.741 335.128 161.559 334.801C160.858 334.73 160.205 334.209 159.472 333.868L159.475 333.871ZM160.136 295.492C160.302 295.679 160.467 295.87 160.632 296.056C161.641 295.891 162.647 295.726 163.656 295.557C163.426 294.893 163.193 294.224 162.959 293.546C164.393 292.791 163.703 291.441 163.599 290.302C163.584 290.155 162.478 290.105 161.742 289.99C161.62 289.577 161.512 288.909 161.217 288.337C160.955 287.831 160.488 287.436 160.108 286.991C159.709 287.407 159.231 287.774 158.929 288.251C158.66 288.682 158.581 289.235 158.419 289.735C158.254 289.684 158.085 289.634 157.92 289.584C158.19 287.892 158.459 286.2 158.721 284.552H155.309C155.524 285.134 155.589 285.6 155.84 285.913C156.394 286.599 157.069 290.909 156.43 291.383C154.073 293.14 156.078 293.147 157.198 293.513C156.886 294.232 156.58 294.936 156.196 295.816H160.025C159.544 294.943 159.206 294.332 158.789 293.582H161.483C160.948 294.339 160.539 294.914 160.133 295.492H160.136ZM176.44 301.584C166.084 295.751 151.512 295.751 142.802 300.938C154.088 296.724 165.273 297.382 176.44 301.584ZM183.275 320.215C181.935 320.951 181.946 324.931 182.908 326.745C183.038 324.414 183.156 322.316 183.275 320.215ZM136.678 320.305H136.186V325.912C136.337 325.912 136.491 325.912 136.642 325.912C136.653 324.044 137.407 322.169 136.674 320.308L136.678 320.305Z" fill="black"/>
<path d="M173.649 344.722C173.48 344.007 173.383 343.788 173.379 343.562C173.354 338.426 170.312 335.552 165.873 333.979C160.467 332.061 155.205 332.395 150.241 335.574C147.745 337.176 146.301 339.327 146.067 342.29C146.01 343.005 145.891 343.713 145.744 344.88C144.695 343.756 143.88 342.79 142.971 341.924C139.756 338.864 138.183 335.146 138.46 330.707C138.794 325.34 138.909 319.938 139.634 314.619C140.256 310.068 143.23 306.954 147.59 305.503C155.489 302.874 163.484 302.856 171.379 305.474C176.788 307.266 179.511 311.436 179.712 317.18C179.812 320.1 180.322 323.009 180.448 325.93C180.563 328.613 180.405 331.303 180.38 333.99C180.362 335.926 179.694 337.585 178.419 339.047C176.892 340.796 175.427 342.599 173.652 344.715L173.649 344.722ZM142.044 312.345C144.695 310.585 145.877 310.585 148.474 312.374C149.063 312.78 149.576 313.308 150.201 313.642C151.028 314.08 151.904 314.497 152.805 314.694C153.247 314.791 153.804 314.378 154.31 314.195C154.03 313.753 153.836 313.196 153.448 312.898C152.561 312.216 151.613 311.591 150.622 311.07C149.163 310.305 147.709 309.414 146.143 309.008C143.898 308.43 142.044 310.09 142.044 312.349V312.345ZM175.933 313.574C174.748 311.569 173.279 311.016 171.709 311.573C170.061 312.158 168.602 313.254 167.011 314.03C166.045 314.5 164.993 314.798 163.972 315.158C163.391 315.362 162.798 315.531 162.209 315.718C162.615 316.206 162.924 316.925 163.444 317.148C165.503 318.038 167.097 317.018 168.584 315.671C170.549 313.89 172.561 312.162 175.937 313.574H175.933ZM165.226 328.293C163.685 327.995 162.478 328.376 161.451 329.493C160.1 330.958 159.134 330.987 157.733 329.507C156.577 328.282 155.252 327.984 153.52 328.587C154.099 329.227 154.759 329.769 155.514 330.103C156.372 330.484 157.295 330.847 158.215 330.915C159.267 330.994 160.352 330.786 161.411 330.62C161.843 330.552 162.259 330.082 162.647 330.125C164.016 330.279 164.791 329.676 165.222 328.289L165.226 328.293ZM153.606 318.969C151.308 315.966 147.012 315.951 144.824 318.818C145.579 318.512 146.25 318.239 146.487 318.142C147.518 318.886 148.262 319.841 148.933 319.795C149.713 319.737 150.428 318.796 151.401 318.067C151.897 318.268 152.752 318.62 153.606 318.969ZM167.054 318.38C168.73 318.597 169.64 318.857 169.784 319.159C169.235 319.464 168.699 319.762 168.003 320.154C170.38 321.641 171.713 321.17 172.065 318.674C172.65 318.778 173.074 318.857 173.749 318.976C171.612 317.094 169.515 316.964 167.054 318.38ZM166.462 326.113C166.566 327.215 167.004 328.372 166.659 329.198C166.286 330.096 165.179 330.692 164.332 331.475C165.851 331.479 167.008 330.865 167.55 329.467C168.092 328.077 167.46 326.968 166.462 326.113ZM152.859 326.113C151.652 327.032 151.135 328.128 151.642 329.428C152.18 330.811 153.28 331.547 154.943 331.421C151.969 329.378 151.904 329.22 152.859 326.113Z" fill="white"/>
<path d="M159.475 333.871C160.208 334.212 160.862 334.733 161.562 334.805C164.741 335.128 167.345 336.594 169.669 338.663C170.822 339.69 171.993 345.171 171.357 346.482C171.257 346.687 171.066 346.863 170.883 347.01C163.369 353.051 156.297 353.4 148.452 347.193C148.097 346.913 147.834 346.313 147.806 345.846C147.432 340.132 150.956 335.872 156.659 335.071C158.218 334.853 159.158 334.454 159.479 333.875L159.475 333.871ZM166.045 338.731C165.1 335.958 163.825 335.369 161.501 336.109C160.23 336.515 158.843 336.547 157.536 336.856C156.365 337.132 155.234 337.553 153.685 338.034C155.765 337.93 157.302 337.887 158.836 337.765C159.594 337.704 160.373 337.599 161.081 337.341C163.825 336.331 163.85 336.314 166.045 338.731ZM156.476 343.027C158.333 344.137 160.977 344.108 162.385 343.027H156.476ZM163.66 339.629C163.649 339.478 163.638 339.327 163.628 339.173C160.747 339.367 157.866 339.561 154.986 339.755C154.996 339.895 155.007 340.038 155.018 340.178C157.899 339.995 160.779 339.812 163.664 339.625L163.66 339.629Z" fill="white"/>
<path d="M160.136 295.492C160.546 294.914 160.952 294.339 161.487 293.582H158.793C159.206 294.332 159.547 294.943 160.029 295.816H156.2C156.584 294.936 156.889 294.232 157.202 293.513C156.085 293.147 154.077 293.14 156.433 291.383C157.073 290.906 156.397 286.596 155.844 285.913C155.593 285.601 155.528 285.134 155.313 284.552H158.725C158.463 286.197 158.193 287.892 157.924 289.584C158.089 289.634 158.258 289.684 158.423 289.735C158.585 289.236 158.66 288.682 158.933 288.251C159.235 287.774 159.709 287.407 160.111 286.991C160.488 287.436 160.959 287.831 161.221 288.338C161.516 288.909 161.62 289.577 161.746 289.99C162.478 290.105 163.588 290.155 163.603 290.302C163.707 291.441 164.396 292.791 162.963 293.546C163.2 294.225 163.43 294.893 163.66 295.557C162.651 295.722 161.645 295.888 160.636 296.056C160.47 295.87 160.305 295.679 160.14 295.492H160.136Z" fill="white"/>
<path d="M176.44 301.58C165.269 297.378 154.088 296.721 142.802 300.934C151.516 295.747 166.088 295.747 176.44 301.58Z" fill="white"/>
<path d="M183.275 320.211C183.156 322.313 183.038 324.41 182.909 326.741C181.946 324.928 181.935 320.951 183.275 320.211Z" fill="white"/>
<path d="M136.678 320.301C137.411 322.165 136.657 324.037 136.646 325.905C136.495 325.905 136.34 325.905 136.19 325.905V320.301H136.682H136.678Z" fill="white"/>
<path d="M142.044 312.345C142.044 310.086 143.894 308.427 146.143 309.005C147.709 309.411 149.163 310.302 150.622 311.067C151.613 311.588 152.561 312.213 153.448 312.895C153.84 313.193 154.03 313.753 154.31 314.192C153.804 314.375 153.251 314.788 152.805 314.691C151.9 314.493 151.027 314.077 150.201 313.639C149.576 313.308 149.063 312.776 148.474 312.371C145.88 310.582 144.695 310.582 142.044 312.342V312.345Z" fill="black"/>
<path d="M175.937 313.578C172.561 312.166 170.553 313.894 168.584 315.675C167.097 317.022 165.506 318.042 163.444 317.151C162.924 316.925 162.615 316.21 162.209 315.722C162.798 315.535 163.391 315.366 163.972 315.162C164.993 314.802 166.045 314.504 167.011 314.034C168.599 313.258 170.061 312.162 171.709 311.577C173.279 311.017 174.748 311.577 175.933 313.578H175.937Z" fill="black"/>
<path d="M165.229 328.297C164.798 329.683 164.023 330.283 162.654 330.132C162.266 330.089 161.849 330.559 161.418 330.628C160.359 330.793 159.274 331.001 158.222 330.922C157.302 330.854 156.376 330.491 155.521 330.111C154.766 329.776 154.106 329.231 153.527 328.595C155.258 327.991 156.584 328.289 157.74 329.514C159.138 330.994 160.107 330.965 161.458 329.5C162.485 328.383 163.692 328.002 165.233 328.3L165.229 328.297Z" fill="black"/>
<path d="M153.61 318.973C152.755 318.624 151.9 318.272 151.405 318.071C150.431 318.8 149.716 319.741 148.937 319.799C148.265 319.849 147.522 318.89 146.491 318.146C146.25 318.243 145.579 318.516 144.828 318.822C147.015 315.955 151.315 315.97 153.61 318.973Z" fill="black"/>
<path d="M167.058 318.383C169.515 316.968 171.612 317.097 173.753 318.979C173.078 318.857 172.654 318.782 172.068 318.678C171.716 321.177 170.384 321.648 168.006 320.157C168.706 319.766 169.238 319.471 169.788 319.162C169.644 318.861 168.734 318.601 167.058 318.383Z" fill="black"/>
<path d="M166.462 326.116C167.46 326.971 168.092 328.081 167.55 329.471C167.004 330.868 165.851 331.486 164.332 331.479C165.179 330.696 166.282 330.1 166.659 329.202C167.004 328.375 166.566 327.219 166.462 326.116Z" fill="black"/>
<path d="M152.863 326.116C151.907 329.22 151.972 329.381 154.946 331.425C153.283 331.551 152.184 330.814 151.645 329.431C151.139 328.131 151.656 327.036 152.863 326.116Z" fill="black"/>
<path d="M166.045 338.731C163.85 336.314 163.825 336.332 161.081 337.341C160.373 337.6 159.594 337.704 158.836 337.765C157.302 337.887 155.765 337.93 153.685 338.034C155.23 337.553 156.365 337.133 157.536 336.856C158.843 336.547 160.23 336.515 161.501 336.109C163.825 335.369 165.104 335.958 166.045 338.731Z" fill="black"/>
<path d="M156.476 343.027H162.385C160.977 344.108 158.333 344.137 156.476 343.027Z" fill="black"/>
<path d="M163.66 339.629C160.779 339.812 157.899 339.995 155.015 340.182C155.004 340.042 154.993 339.898 154.982 339.758C157.863 339.564 160.743 339.37 163.624 339.176C163.635 339.327 163.646 339.478 163.656 339.632L163.66 339.629Z" fill="black"/>
</svg>
