<svg width="310" height="650" viewBox="0 0 310 650" fill="none" xmlns="http://www.w3.org/2000/svg">
<rect x="106.591" y="126.934" width="14.1627" height="4.95694" rx="2.47847" transform="rotate(-10.8545 106.591 126.934)" fill="black"/>
<path d="M156.095 279.819C139.584 247.86 121.008 167.025 113.784 130.602" stroke="black" stroke-width="4"/>
<path d="M144.229 65.6391C149.311 92.1416 123.964 125.405 114.656 125.748C96.4927 130.673 68.6658 102.12 63.2608 83.3317C56.5495 53.9705 69.4402 30.9535 95.0913 27.4769C119.289 22.8371 138.495 35.7341 144.229 65.6391Z" fill="#3F37C9"/>
<path d="M83.146 41.0036C79.1435 43.4465 68.5589 51.559 71.0907 65.7649" stroke="white" stroke-opacity="0.3" stroke-width="5.66507" stroke-linecap="round"/>
<rect x="141.841" y="99.9126" width="14.1627" height="4.95694" rx="2.47847" fill="black"/>
<path d="M155.328 279.371C156.085 280.175 157.35 280.213 158.155 279.456C158.959 278.699 158.997 277.434 158.24 276.629L155.328 279.371ZM166.98 176.037L168.682 177.087L168.695 177.066L168.708 177.045L166.98 176.037ZM158.24 276.629C158.462 276.865 158.511 277.059 158.444 276.893C158.409 276.804 158.353 276.643 158.28 276.391C158.136 275.891 157.963 275.17 157.767 274.233C157.376 272.367 156.917 269.771 156.43 266.653C155.455 260.423 154.376 252.192 153.497 243.727C152.618 235.258 151.941 226.591 151.765 219.48C151.677 215.922 151.716 212.789 151.909 210.282C152.109 207.692 152.46 206.033 152.847 205.235L149.248 203.49C148.502 205.028 148.123 207.361 147.921 209.974C147.713 212.67 147.677 215.953 147.767 219.579C147.946 226.838 148.634 235.62 149.519 244.141C150.404 252.667 151.491 260.967 152.478 267.271C152.97 270.42 153.441 273.092 153.852 275.053C154.057 276.03 154.253 276.861 154.437 277.499C154.528 277.816 154.626 278.119 154.733 278.384C154.808 278.573 154.988 279.01 155.328 279.371L158.24 276.629ZM152.847 205.235C157.332 195.984 165.266 182.625 168.682 177.087L165.278 174.987C161.849 180.544 153.826 194.046 149.248 203.49L152.847 205.235ZM168.708 177.045C171.558 172.159 174.037 160.083 163.083 149.13L160.255 151.958C169.696 161.399 167.36 171.417 165.253 175.029L168.708 177.045ZM163.083 149.13C158.4 144.447 155.196 136.242 153.154 127.542C151.13 118.925 150.33 110.196 150.214 104.827L146.215 104.913C146.336 110.519 147.164 119.529 149.259 128.456C151.336 137.3 154.741 146.445 160.255 151.958L163.083 149.13Z" fill="black"/>
<path d="M190.349 46.8029C190.349 73.7882 159.191 101.683 149.985 100.267C131.219 101.683 109.267 68.401 107.497 48.9313C106.435 18.8316 123.43 -1.34602 149.276 0.0700658C173.915 0.0700658 190.349 16.3531 190.349 46.8029Z" fill="#4361EE"/>
<path d="M134.998 11.105C130.607 12.7504 118.684 18.7245 118.495 33.153" stroke="white" stroke-opacity="0.3" stroke-width="5.66507" stroke-linecap="round"/>
<path d="M157 390C161.776 390 167.033 393.567 171.718 402.139C176.322 410.563 179.806 422.919 181.282 438.104C181.687 442.269 178.282 446 173.701 446H169.556C168.972 446 168.389 445.936 167.819 445.809L160.434 444.166C158.18 443.665 155.845 443.657 153.588 444.143L145.807 445.82C145.253 445.94 144.688 446 144.122 446H140.908C136.209 446 132.66 442.03 133.177 437.6C135.237 419.963 138.582 407.803 142.86 400.162C147.039 392.699 151.795 390 157 390Z" fill="white" stroke="black" stroke-width="8"/>
<path d="M157 345L157 366.794L157 389" stroke="black" stroke-width="8"/>
<path d="M161 433C161 430.791 159.209 429 157 429C154.791 429 153 430.791 153 433H161ZM153 433V440.43H161V433H153ZM153 440.43V448H161V440.43H153Z" fill="black"/>
<path d="M144 471.5L146.591 474.548L148 473.35V471.5H144ZM131.409 476.952C129.726 478.383 129.521 480.907 130.952 482.591C132.383 484.274 134.907 484.479 136.591 483.048L131.409 476.952ZM140 445V471.5H148V445H140ZM141.409 468.452L131.409 476.952L136.591 483.048L146.591 474.548L141.409 468.452Z" fill="black"/>
<path d="M174 469.5L171.409 472.548L170 471.35V469.5H174ZM186.591 474.952C188.274 476.383 188.479 478.907 187.048 480.591C185.617 482.274 183.093 482.479 181.409 481.048L186.591 474.952ZM178 443V469.5H170V443H178ZM176.591 466.452L186.591 474.952L181.409 481.048L171.409 472.548L176.591 466.452Z" fill="black"/>
<path d="M158 359.5C223 346.5 194.5 282 172 277.5" stroke="black" stroke-width="8"/>
<path d="M156.031 359C91.0312 346 119.531 281.5 142.031 277" stroke="black" stroke-width="8"/>
<path d="M183.551 314.889C184.228 323.24 181.625 331.77 176.816 338.361C172.012 344.945 165.161 349.402 157.427 350.028C149.694 350.655 142.215 347.36 136.413 341.635C130.605 335.906 126.662 327.906 125.985 319.554C124.634 302.887 136.545 288.514 152.338 287.234C168.13 285.954 182.2 298.221 183.551 314.889Z" fill="white" stroke="black" stroke-width="6"/>
<ellipse cx="144.5" cy="316.5" rx="3.5" ry="4.5" fill="black"/>
<path d="M150 335.167H157.367L163 333" stroke="black" stroke-width="3.46667" stroke-linecap="round" stroke-linejoin="round"/>
<ellipse cx="164.5" cy="312.5" rx="3.5" ry="4.5" fill="black"/>
<path d="M140 277C152.4 277 167.167 277.5 173 277.5" stroke="black" stroke-width="8" stroke-linecap="round" stroke-linejoin="round"/>
</svg>
