<svg width="310" height="650" viewBox="0 0 310 650" fill="none" xmlns="http://www.w3.org/2000/svg">
<rect x="144.391" y="99.9126" width="14.1627" height="4.95694" rx="2.47847" fill="black"/>
<path d="M157.878 279.371C158.635 280.175 159.9 280.213 160.705 279.456C161.509 278.699 161.547 277.434 160.79 276.629L157.878 279.371ZM169.53 176.037L171.232 177.087L171.245 177.066L171.258 177.045L169.53 176.037ZM160.79 276.629C161.012 276.865 161.061 277.059 160.994 276.893C160.959 276.804 160.903 276.643 160.83 276.391C160.686 275.891 160.513 275.17 160.317 274.233C159.926 272.367 159.467 269.771 158.98 266.653C158.005 260.423 156.926 252.192 156.047 243.727C155.168 235.258 154.492 226.591 154.315 219.48C154.227 215.922 154.266 212.789 154.459 210.282C154.659 207.692 155.01 206.033 155.397 205.235L151.798 203.49C151.052 205.028 150.673 207.361 150.471 209.974C150.263 212.67 150.227 215.953 150.317 219.579C150.496 226.838 151.184 235.62 152.069 244.141C152.954 252.667 154.041 260.967 155.028 267.271C155.52 270.42 155.991 273.092 156.402 275.053C156.607 276.03 156.803 276.861 156.987 277.499C157.078 277.816 157.176 278.119 157.283 278.384C157.358 278.573 157.538 279.01 157.878 279.371L160.79 276.629ZM155.397 205.235C159.882 195.984 167.816 182.625 171.232 177.087L167.828 174.987C164.4 180.544 156.376 194.046 151.798 203.49L155.397 205.235ZM171.258 177.045C174.108 172.159 176.587 160.083 165.633 149.13L162.805 151.958C172.246 161.399 169.91 171.417 167.803 175.029L171.258 177.045ZM165.633 149.13C160.95 144.447 157.746 136.242 155.704 127.542C153.68 118.925 152.88 110.196 152.764 104.827L148.765 104.913C148.886 110.519 149.714 119.529 151.809 128.456C153.886 137.3 157.291 146.445 162.805 151.958L165.633 149.13Z" fill="black"/>
<path d="M192.899 46.8029C192.899 73.7882 161.741 101.683 152.535 100.267C133.77 101.683 111.817 68.401 110.047 48.9313C108.985 18.8316 125.98 -1.34602 151.826 0.0700658C176.465 0.0700658 192.899 16.3531 192.899 46.8029Z" fill="#4361EE"/>
<path d="M137.548 11.105C133.157 12.7504 121.234 18.7245 121.045 33.153" stroke="white" stroke-opacity="0.3" stroke-width="5.66507" stroke-linecap="round"/>
<path d="M159.55 390C164.325 390 169.582 393.567 174.267 402.139C178.871 410.563 182.355 422.919 183.832 438.104C184.237 442.269 180.832 446 176.25 446H172.106C171.521 446 170.939 445.936 170.368 445.809L162.983 444.166C160.73 443.665 158.395 443.657 156.138 444.143L148.357 445.82C147.803 445.94 147.238 446 146.671 446H143.457C138.759 446 135.21 442.03 135.727 437.6C137.786 419.963 141.131 407.803 145.41 400.162C149.589 392.699 154.344 390 159.55 390Z" fill="white" stroke="black" stroke-width="8"/>
<path d="M159.55 345L159.55 366.794L159.55 389" stroke="black" stroke-width="8"/>
<path d="M163.55 433C163.55 430.791 161.759 429 159.55 429C157.34 429 155.55 430.791 155.55 433H163.55ZM155.55 433V440.43H163.55V433H155.55ZM155.55 440.43V448H163.55V440.43H155.55Z" fill="black"/>
<path d="M146.55 471.5L149.14 474.548L150.55 473.35V471.5H146.55ZM133.959 476.952C132.276 478.383 132.071 480.907 133.502 482.591C134.933 484.274 137.457 484.479 139.14 483.048L133.959 476.952ZM142.55 445V471.5H150.55V445H142.55ZM143.959 468.452L133.959 476.952L139.14 483.048L149.14 474.548L143.959 468.452Z" fill="black"/>
<path d="M176.55 469.5L173.959 472.548L172.55 471.35V469.5H176.55ZM189.14 474.952C190.823 476.383 191.028 478.907 189.597 480.591C188.167 482.274 185.642 482.479 183.959 481.048L189.14 474.952ZM180.55 443V469.5H172.55V443H180.55ZM179.14 466.452L189.14 474.952L183.959 481.048L173.959 472.548L179.14 466.452Z" fill="black"/>
<path d="M160.55 359.5C225.55 346.5 197.05 282 174.55 277.5" stroke="black" stroke-width="8"/>
<path d="M132.838 430.296C134.056 432.139 133.548 434.62 131.705 435.838C129.861 437.055 127.38 436.548 126.163 434.704L132.838 430.296ZM158.581 363C144.293 363 133.813 373.084 128.844 387.145C123.859 401.252 124.901 418.277 132.838 430.296L126.163 434.704C116.599 420.223 115.641 400.498 121.301 384.48C126.978 368.416 139.788 355 158.581 355V363Z" fill="black"/>
<path d="M186.101 314.889C186.778 323.24 184.175 331.77 179.366 338.361C174.561 344.945 167.71 349.402 159.977 350.028C152.244 350.655 144.764 347.36 138.962 341.635C133.155 335.906 129.212 327.906 128.535 319.554C127.184 302.887 139.095 288.514 154.887 287.234C170.68 285.954 184.75 298.221 186.101 314.889Z" fill="white" stroke="black" stroke-width="6"/>
<ellipse cx="147.05" cy="316.5" rx="3.5" ry="4.5" fill="black"/>
<path d="M152.55 335.167H159.916L165.55 333" stroke="black" stroke-width="3.46667" stroke-linecap="round" stroke-linejoin="round"/>
<ellipse cx="167.05" cy="312.5" rx="3.5" ry="4.5" fill="black"/>
<path d="M155.5 273.5C167.9 273.5 169.717 277.5 175.55 277.5" stroke="black" stroke-width="8" stroke-linecap="round" stroke-linejoin="round"/>
</svg>
