<svg width="310" height="650" viewBox="0 0 310 650" fill="none" xmlns="http://www.w3.org/2000/svg">
<rect x="103.591" y="126.934" width="14.1627" height="4.95694" rx="2.47847" transform="rotate(-10.8545 103.591 126.934)" fill="black"/>
<path d="M153.095 279.819C136.584 247.86 118.008 167.025 110.784 130.602" stroke="black" stroke-width="4"/>
<path d="M141.229 65.6391C146.311 92.1416 120.964 125.405 111.656 125.748C93.4927 130.673 65.6658 102.12 60.2608 83.3317C53.5495 53.9705 66.4402 30.9535 92.0913 27.4769C116.289 22.8371 135.495 35.7341 141.229 65.6391Z" fill="#3F37C9"/>
<path d="M80.146 41.0036C76.1435 43.4465 65.5589 51.559 68.0907 65.7649" stroke="white" stroke-opacity="0.3" stroke-width="5.66507" stroke-linecap="round"/>
<rect x="138.841" y="99.9126" width="14.1627" height="4.95694" rx="2.47847" fill="black"/>
<path d="M152.328 279.371C153.085 280.175 154.35 280.213 155.155 279.456C155.959 278.699 155.997 277.434 155.24 276.629L152.328 279.371ZM163.98 176.037L165.682 177.087L165.695 177.066L165.708 177.045L163.98 176.037ZM155.24 276.629C155.462 276.865 155.511 277.059 155.444 276.893C155.409 276.804 155.353 276.643 155.28 276.391C155.136 275.891 154.963 275.17 154.767 274.233C154.376 272.367 153.917 269.771 153.43 266.653C152.455 260.423 151.376 252.192 150.497 243.727C149.618 235.258 148.941 226.591 148.765 219.48C148.677 215.922 148.716 212.789 148.909 210.282C149.109 207.692 149.46 206.033 149.847 205.235L146.248 203.49C145.502 205.028 145.123 207.361 144.921 209.974C144.713 212.67 144.677 215.953 144.767 219.579C144.946 226.838 145.634 235.62 146.519 244.141C147.404 252.667 148.491 260.967 149.478 267.271C149.97 270.42 150.441 273.092 150.852 275.053C151.057 276.03 151.253 276.861 151.437 277.499C151.528 277.816 151.626 278.119 151.733 278.384C151.808 278.573 151.988 279.01 152.328 279.371L155.24 276.629ZM149.847 205.235C154.332 195.984 162.266 182.625 165.682 177.087L162.278 174.987C158.849 180.544 150.826 194.046 146.248 203.49L149.847 205.235ZM165.708 177.045C168.558 172.159 171.037 160.083 160.083 149.13L157.255 151.958C166.696 161.399 164.36 171.417 162.253 175.029L165.708 177.045ZM160.083 149.13C155.4 144.447 152.196 136.242 150.154 127.542C148.13 118.925 147.33 110.196 147.214 104.827L143.215 104.913C143.336 110.519 144.164 119.529 146.259 128.456C148.336 137.3 151.741 146.445 157.255 151.958L160.083 149.13Z" fill="black"/>
<path d="M187.349 46.8029C187.349 73.7882 156.191 101.683 146.985 100.267C128.219 101.683 106.267 68.401 104.497 48.9313C103.435 18.8316 120.43 -1.34602 146.276 0.0700658C170.915 0.0700658 187.349 16.3531 187.349 46.8029Z" fill="#4361EE"/>
<path d="M131.998 11.105C127.607 12.7504 115.684 18.7245 115.495 33.153" stroke="white" stroke-opacity="0.3" stroke-width="5.66507" stroke-linecap="round"/>
<rect x="190.326" y="111.066" width="14.1627" height="4.95694" rx="2.47847" transform="rotate(9.00973 190.326 111.066)" fill="black"/>
<path d="M144.596 279.876C145.218 280.789 146.462 281.025 147.375 280.404C148.288 279.782 148.524 278.538 147.902 277.625L144.596 279.876ZM203.234 190.188L204.75 191.492L204.767 191.473L204.782 191.454L203.234 190.188ZM147.902 277.625C148.112 277.932 148.167 278.217 148.184 278.346C148.202 278.484 148.194 278.573 148.192 278.586C148.19 278.606 148.197 278.536 148.257 278.338C148.373 277.952 148.603 277.363 148.966 276.557C149.684 274.963 150.818 272.753 152.268 270.088C155.163 264.77 159.239 257.783 163.561 250.581C172.216 236.16 181.776 221.012 184.702 216.812L181.421 214.525C178.408 218.848 168.786 234.102 160.132 248.522C155.8 255.74 151.69 262.784 148.755 268.176C147.291 270.865 146.1 273.18 145.319 274.914C144.932 275.773 144.618 276.548 144.427 277.183C144.333 277.495 144.245 277.848 144.211 278.201C144.188 278.44 144.126 279.185 144.596 279.876L147.902 277.625ZM184.702 216.812C190.581 208.378 200.509 196.426 204.75 191.492L201.717 188.884C197.461 193.836 187.422 205.915 181.421 214.525L184.702 216.812ZM204.782 191.454C208.362 187.075 212.702 175.536 203.599 163.003L200.362 165.353C208.208 176.156 204.332 185.685 201.685 188.922L204.782 191.454ZM203.599 163.003C199.707 157.644 197.827 149.039 197.172 140.126C196.524 131.299 197.1 122.552 197.826 117.231L193.863 116.689C193.104 122.245 192.511 131.274 193.183 140.419C193.849 149.479 195.78 159.044 200.362 165.353L203.599 163.003Z" fill="black"/>
<path d="M246.552 66.2075C242.326 92.8599 207.184 115.531 198.314 112.691C179.558 111.151 163.089 74.8416 164.39 55.335C168.054 25.4403 187.999 8.17302 213.305 13.6193C237.64 17.4778 251.321 36.1335 246.552 66.2075Z" fill="#4CC9F0"/>
<path d="M197.475 22.2821C192.88 23.2195 180.169 27.2528 177.723 41.4737" stroke="white" stroke-opacity="0.3" stroke-width="5.66507" stroke-linecap="round"/>
<rect x="209.742" y="147.441" width="14.1627" height="4.95694" rx="2.47847" fill="black"/>
<path d="M148.249 279.25C138.052 269.053 216.351 163.374 216.115 152.398" stroke="black" stroke-width="4"/>
<path d="M258.25 94.3307C258.25 121.316 227.092 149.211 217.886 147.795C199.12 149.211 177.168 115.929 175.398 96.4591C174.336 66.3594 191.33 46.1818 217.177 47.5979C241.816 47.5979 258.25 63.881 258.25 94.3307Z" fill="#7209B7"/>
<path d="M202.899 58.6328C198.508 60.2782 186.585 66.2523 186.396 80.6808" stroke="white" stroke-opacity="0.3" stroke-width="5.66507" stroke-linecap="round"/>
<path d="M154 390C158.776 390 164.033 393.567 168.718 402.139C173.322 410.563 176.806 422.919 178.282 438.104C178.687 442.269 175.282 446 170.701 446H166.556C165.972 446 165.389 445.936 164.819 445.809L157.434 444.166C155.18 443.665 152.845 443.657 150.588 444.143L142.807 445.82C142.253 445.94 141.688 446 141.122 446H137.908C133.209 446 129.66 442.03 130.177 437.6C132.237 419.963 135.582 407.803 139.86 400.162C144.039 392.699 148.795 390 154 390Z" fill="white" stroke="black" stroke-width="8"/>
<path d="M154 345L154 366.794L154 389" stroke="black" stroke-width="8"/>
<path d="M158 433C158 430.791 156.209 429 154 429C151.791 429 150 430.791 150 433H158ZM150 433V440.43H158V433H150ZM150 440.43V448H158V440.43H150Z" fill="black"/>
<path d="M141 471.5L143.591 474.548L145 473.35V471.5H141ZM128.409 476.952C126.726 478.383 126.521 480.907 127.952 482.591C129.383 484.274 131.907 484.479 133.591 483.048L128.409 476.952ZM137 445V471.5H145V445H137ZM138.409 468.452L128.409 476.952L133.591 483.048L143.591 474.548L138.409 468.452Z" fill="black"/>
<path d="M171 469.5L168.409 472.548L167 471.35V469.5H171ZM183.591 474.952C185.274 476.383 185.479 478.907 184.048 480.591C182.617 482.274 180.093 482.479 178.409 481.048L183.591 474.952ZM175 443V469.5H167V443H175ZM173.591 466.452L183.591 474.952L178.409 481.048L168.409 472.548L173.591 466.452Z" fill="black"/>
<path d="M155 359.5C220 346.5 191.5 282 169 277.5" stroke="black" stroke-width="8"/>
<path d="M153.031 359C88.0312 346 116.531 281.5 139.031 277" stroke="black" stroke-width="8"/>
<path d="M180.551 314.889C181.228 323.24 178.625 331.77 173.816 338.361C169.012 344.945 162.161 349.402 154.427 350.028C146.694 350.655 139.215 347.36 133.413 341.635C127.605 335.906 123.662 327.906 122.985 319.554C121.634 302.887 133.545 288.514 149.338 287.234C165.13 285.954 179.2 298.221 180.551 314.889Z" fill="white" stroke="black" stroke-width="6"/>
<ellipse cx="141.5" cy="316.5" rx="3.5" ry="4.5" fill="black"/>
<path d="M147 335.167H154.367L160 333" stroke="black" stroke-width="3.46667" stroke-linecap="round" stroke-linejoin="round"/>
<ellipse cx="161.5" cy="312.5" rx="3.5" ry="4.5" fill="black"/>
<path d="M137 277C149.4 277 164.167 277.5 170 277.5" stroke="black" stroke-width="8" stroke-linecap="round" stroke-linejoin="round"/>
</svg>
